<?xml version="1.0" encoding="us-ascii" standalone="no"?><svg xmlns="http://www.w3.org/2000/svg" xmlns:xlink="http://www.w3.org/1999/xlink" contentStyleType="text/css" height="377px" preserveAspectRatio="none" style="width:745px;height:377px;background:#FFFFFF;" version="1.1" viewBox="0 0 745 377" width="745px" zoomAndPan="magnify"><defs/><g><g id="elem_r"><rect fill="#FFFFFF" height="34.9819" style="stroke:#000000;stroke-width:0.5;" width="119" x="303" y="7"/><text fill="#000000" font-family="Courier" font-size="11" lengthAdjust="spacing" textLength="105" x="310" y="20.7589">fabricar(0,&#160;[])</text><line style="stroke:#000000;stroke-width:0.5;" x1="304" x2="421" y1="25.9819" y2="25.9819"/></g><g id="elem_n1"><rect fill="#FFFFFF" height="34.9819" style="stroke:#000000;stroke-width:0.5;" width="126" x="220.5" y="116.98"/><text fill="#000000" font-family="Courier" font-size="11" lengthAdjust="spacing" textLength="112" x="227.5" y="130.7389">fabricar(1,&#160;[1])</text><line style="stroke:#000000;stroke-width:0.5;" x1="221.5" x2="345.5" y1="135.9619" y2="135.9619"/></g><g id="elem_n0"><rect fill="#FFFFFF" height="34.9819" style="stroke:#000000;stroke-width:0.5;" width="119" x="387" y="116.98"/><text fill="#000000" font-family="Courier" font-size="11" lengthAdjust="spacing" textLength="105" x="394" y="130.7389">fabricar(1,&#160;[])</text><line style="stroke:#000000;stroke-width:0.5;" x1="388" x2="505" y1="135.9619" y2="135.9619"/></g><g id="elem_n12"><rect fill="#FFFFFF" height="34.9819" style="stroke:#000000;stroke-width:0.5;" width="91" x="89" y="226.97"/><text fill="#000000" font-family="Courier" font-size="11" lengthAdjust="spacing" textLength="77" x="96" y="240.7289">f(2,&#160;[1,2])</text><line style="stroke:#000000;stroke-width:0.5;" x1="90" x2="179" y1="245.9519" y2="245.9519"/></g><g id="elem_n1b"><rect fill="#FFFFFF" height="34.9819" style="stroke:#000000;stroke-width:0.5;" width="77" x="245" y="226.97"/><text fill="#000000" font-family="Courier" font-size="11" lengthAdjust="spacing" textLength="63" x="252" y="240.7289">f(2,&#160;[1])</text><line style="stroke:#000000;stroke-width:0.5;" x1="246" x2="321" y1="245.9519" y2="245.9519"/></g><g id="elem_n2"><rect fill="#FFFFFF" height="34.9819" style="stroke:#000000;stroke-width:0.5;" width="77" x="408" y="226.97"/><text fill="#000000" font-family="Courier" font-size="11" lengthAdjust="spacing" textLength="63" x="415" y="240.7289">f(2,&#160;[2])</text><line style="stroke:#000000;stroke-width:0.5;" x1="409" x2="484" y1="245.9519" y2="245.9519"/></g><g id="elem_n0b"><rect fill="#FFFFFF" height="34.9819" style="stroke:#000000;stroke-width:0.5;" width="70" x="579.5" y="226.97"/><text fill="#000000" font-family="Courier" font-size="11" lengthAdjust="spacing" textLength="56" x="586.5" y="240.7289">f(2,&#160;[])</text><line style="stroke:#000000;stroke-width:0.5;" x1="580.5" x2="648.5" y1="245.9519" y2="245.9519"/></g><g id="elem_l123"><rect fill="#CCE5FF" height="34.9819" style="stroke:#000000;stroke-width:0.5;" width="63" x="7" y="336.95"/><text fill="#000000" font-family="Courier" font-size="11" lengthAdjust="spacing" textLength="49" x="14" y="350.7089">[1,2,3]</text><line style="stroke:#000000;stroke-width:0.5;" x1="8" x2="69" y1="355.9319" y2="355.9319"/></g><g id="elem_l12"><rect fill="#CCE5FF" height="34.9819" style="stroke:#000000;stroke-width:0.5;" width="49" x="110" y="336.95"/><text fill="#000000" font-family="Courier" font-size="11" lengthAdjust="spacing" textLength="35" x="117" y="350.7089">[1,2]</text><line style="stroke:#000000;stroke-width:0.5;" x1="111" x2="158" y1="355.9319" y2="355.9319"/></g><g id="elem_l13"><rect fill="#CCE5FF" height="34.9819" style="stroke:#000000;stroke-width:0.5;" width="49" x="206" y="336.95"/><text fill="#000000" font-family="Courier" font-size="11" lengthAdjust="spacing" textLength="35" x="213" y="350.7089">[1,3]</text><line style="stroke:#000000;stroke-width:0.5;" x1="207" x2="254" y1="355.9319" y2="355.9319"/></g><g id="elem_l1"><rect fill="#CCE5FF" height="34.9819" style="stroke:#000000;stroke-width:0.5;" width="35" x="309" y="336.95"/><text fill="#000000" font-family="Courier" font-size="11" lengthAdjust="spacing" textLength="21" x="316" y="350.7089">[1]</text><line style="stroke:#000000;stroke-width:0.5;" x1="310" x2="343" y1="355.9319" y2="355.9319"/></g><g id="elem_l23"><rect fill="#CCE5FF" height="34.9819" style="stroke:#000000;stroke-width:0.5;" width="49" x="398" y="336.95"/><text fill="#000000" font-family="Courier" font-size="11" lengthAdjust="spacing" textLength="35" x="405" y="350.7089">[2,3]</text><line style="stroke:#000000;stroke-width:0.5;" x1="399" x2="446" y1="355.9319" y2="355.9319"/></g><g id="elem_l2"><rect fill="#CCE5FF" height="34.9819" style="stroke:#000000;stroke-width:0.5;" width="35" x="501" y="336.95"/><text fill="#000000" font-family="Courier" font-size="11" lengthAdjust="spacing" textLength="21" x="508" y="350.7089">[2]</text><line style="stroke:#000000;stroke-width:0.5;" x1="502" x2="535" y1="355.9319" y2="355.9319"/></g><g id="elem_l3"><rect fill="#CCE5FF" height="34.9819" style="stroke:#000000;stroke-width:0.5;" width="35" x="597" y="336.95"/><text fill="#000000" font-family="Courier" font-size="11" lengthAdjust="spacing" textLength="21" x="604" y="350.7089">[3]</text><line style="stroke:#000000;stroke-width:0.5;" x1="598" x2="631" y1="355.9319" y2="355.9319"/></g><g id="elem_l0"><rect fill="#CCE5FF" height="34.9819" style="stroke:#000000;stroke-width:0.5;" width="28" x="696.5" y="336.95"/><text fill="#000000" font-family="Courier" font-size="11" lengthAdjust="spacing" textLength="14" x="703.5" y="350.7089">[]</text><line style="stroke:#000000;stroke-width:0.5;" x1="697.5" x2="723.5" y1="355.9319" y2="355.9319"/></g><!--link r to n1--><g id="link_r_n1"><path codeLine="28" d="M349.3,42.13 C342.41,50.93 333.88,61.95 326.5,71.98 C315.53,86.88 306.8939,99.2222 298.3539,111.6722 " fill="none" id="r-to-n1" style="stroke:#181818;stroke-width:1.0;"/><polygon fill="#181818" points="294.96,116.62,303.3495,111.4609,297.7883,112.4968,296.7524,106.9356,294.96,116.62" style="stroke:#181818;stroke-width:1.0;"/><text fill="#000000" font-family="Courier" font-size="10" lengthAdjust="spacing" textLength="54" x="327.5" y="83.67">incluir&#160;1</text></g><!--link r to n0--><g id="link_r_n0"><path codeLine="29" d="M375.62,42.37 C391.41,62.65 414.0455,91.7545 429.7855,111.9845 " fill="none" id="r-to-n0" style="stroke:#181818;stroke-width:1.0;"/><polygon fill="#181818" points="433.47,116.72,431.1003,107.1605,430.3996,112.7738,424.7863,112.0731,433.47,116.72" style="stroke:#181818;stroke-width:1.0;"/><text fill="#000000" font-family="Courier" font-size="10" lengthAdjust="spacing" textLength="54" x="410.53" y="83.67">excluir&#160;1</text></g><!--link n1 to n12--><g id="link_n1_n12"><path codeLine="31" d="M260.22,152.35 C232.23,172.63 190.3987,202.9496 162.4787,223.1796 " fill="none" id="n1-to-n12" style="stroke:#181818;stroke-width:1.0;"/><polygon fill="#181818" points="157.62,226.7,167.2549,224.6584,161.6689,223.7663,162.561,218.1802,157.62,226.7" style="stroke:#181818;stroke-width:1.0;"/><text fill="#000000" font-family="Courier" font-size="10" lengthAdjust="spacing" textLength="54" x="218.92" y="193.66">incluir&#160;2</text></g><!--link n1 to n1b--><g id="link_n1_n1b"><path codeLine="32" d="M283.5,152.35 C283.5,172.63 283.5,200.47 283.5,220.7 " fill="none" id="n1-to-n1b" style="stroke:#181818;stroke-width:1.0;"/><polygon fill="#181818" points="283.5,226.7,287.5,217.7,283.5,221.7,279.5,217.7,283.5,226.7" style="stroke:#181818;stroke-width:1.0;"/><text fill="#000000" font-family="Courier" font-size="10" lengthAdjust="spacing" textLength="54" x="284.5" y="193.66">excluir&#160;2</text></g><!--link n0 to n2--><g id="link_n0_n2"><path codeLine="33" d="M446.5,152.35 C446.5,172.63 446.5,200.47 446.5,220.7 " fill="none" id="n0-to-n2" style="stroke:#181818;stroke-width:1.0;"/><polygon fill="#181818" points="446.5,226.7,450.5,217.7,446.5,221.7,442.5,217.7,446.5,226.7" style="stroke:#181818;stroke-width:1.0;"/><text fill="#000000" font-family="Courier" font-size="10" lengthAdjust="spacing" textLength="54" x="447.5" y="193.66">incluir&#160;2</text></g><!--link n0 to n0b--><g id="link_n0_n0b"><path codeLine="34" d="M472.75,152.35 C504.22,172.57 551.6032,203.025 583.1132,223.285 " fill="none" id="n0-to-n0b" style="stroke:#181818;stroke-width:1.0;"/><polygon fill="#181818" points="588.16,226.53,582.7531,218.298,583.9543,223.8259,578.4265,225.0271,588.16,226.53" style="stroke:#181818;stroke-width:1.0;"/><text fill="#000000" font-family="Courier" font-size="10" lengthAdjust="spacing" textLength="54" x="541.56" y="193.66">excluir&#160;2</text></g><!--link n12 to l123--><g id="link_n12_l123"><path codeLine="36" d="M103.12,262.4 C90.85,270.18 77.38,280.28 67.5,291.95 C56.29,305.19 50.4001,317.8467 45.7101,331.0367 " fill="none" id="n12-to-l123" style="stroke:#181818;stroke-width:1.0;"/><polygon fill="#181818" points="43.7,336.69,50.4841,329.5502,45.3751,331.979,42.9464,326.87,43.7,336.69" style="stroke:#181818;stroke-width:1.0;"/><text fill="#000000" font-family="Courier" font-size="10" lengthAdjust="spacing" textLength="54" x="68.5" y="303.64">incluir&#160;3</text></g><!--link n12 to l12--><g id="link_n12_l12"><path codeLine="37" d="M132.93,262.42 C131.97,274.76 131.01,291.89 131.5,306.95 C131.82,316.81 132.07,321.8462 132.72,330.6862 " fill="none" id="n12-to-l12" style="stroke:#181818;stroke-width:1.0;"/><polygon fill="#181818" points="133.16,336.67,136.4892,327.4009,132.7933,331.6835,128.5108,327.9876,133.16,336.67" style="stroke:#181818;stroke-width:1.0;"/><text fill="#000000" font-family="Courier" font-size="10" lengthAdjust="spacing" textLength="54" x="132.5" y="303.64">excluir&#160;3</text></g><!--link n1b to l13--><g id="link_n1b_l13"><path codeLine="38" d="M261.99,262.28 C253.26,270.3 243.96,280.62 238.5,291.95 C231.72,306.01 230.1294,317.8705 229.9594,330.7105 " fill="none" id="n1b-to-l13" style="stroke:#181818;stroke-width:1.0;"/><polygon fill="#181818" points="229.88,336.71,233.9988,327.7637,229.9462,331.7104,225.9995,327.6578,229.88,336.71" style="stroke:#181818;stroke-width:1.0;"/><text fill="#000000" font-family="Courier" font-size="10" lengthAdjust="spacing" textLength="54" x="239.5" y="303.64">incluir&#160;3</text></g><!--link n1b to l1--><g id="link_n1b_l1"><path codeLine="39" d="M290.22,262.33 C298.3,282.62 309.5502,310.8757 317.6102,331.1157 " fill="none" id="n1b-to-l1" style="stroke:#181818;stroke-width:1.0;"/><polygon fill="#181818" points="319.83,336.69,320.2165,326.8487,317.9802,332.0448,312.7841,329.8085,319.83,336.69" style="stroke:#181818;stroke-width:1.0;"/><text fill="#000000" font-family="Courier" font-size="10" lengthAdjust="spacing" textLength="54" x="308.57" y="303.64">excluir&#160;3</text></g><!--link n2 to l23--><g id="link_n2_l23"><path codeLine="40" d="M433.92,262.15 C428.32,270.6 422.36,281.31 419.5,291.95 C415.53,306.71 415.9804,318.2356 417.9904,330.7756 " fill="none" id="n2-to-l23" style="stroke:#181818;stroke-width:1.0;"/><polygon fill="#181818" points="418.94,336.7,421.4652,327.1804,418.1487,331.763,413.566,328.4465,418.94,336.7" style="stroke:#181818;stroke-width:1.0;"/><text fill="#000000" font-family="Courier" font-size="10" lengthAdjust="spacing" textLength="54" x="420.5" y="303.64">incluir&#160;3</text></g><!--link n2 to l2--><g id="link_n2_l2"><path codeLine="41" d="M458.63,262.1 C464.96,270.89 472.77,281.92 479.5,291.95 C489.51,306.85 497.2433,319.0437 504.9733,331.4837 " fill="none" id="n2-to-l2" style="stroke:#181818;stroke-width:1.0;"/><polygon fill="#181818" points="508.14,336.58,506.7874,326.8245,505.5011,332.3331,499.9924,331.0468,508.14,336.58" style="stroke:#181818;stroke-width:1.0;"/><text fill="#000000" font-family="Courier" font-size="10" lengthAdjust="spacing" textLength="54" x="489.29" y="303.64">excluir&#160;3</text></g><!--link n0b to l3--><g id="link_n0b_l3"><path codeLine="42" d="M612.93,262.42 C611.97,274.76 611.01,291.89 611.5,306.95 C611.82,316.81 612.07,321.8462 612.72,330.6862 " fill="none" id="n0b-to-l3" style="stroke:#181818;stroke-width:1.0;"/><polygon fill="#181818" points="613.16,336.67,616.4892,327.4009,612.7933,331.6835,608.5108,327.9876,613.16,336.67" style="stroke:#181818;stroke-width:1.0;"/><text fill="#000000" font-family="Courier" font-size="10" lengthAdjust="spacing" textLength="54" x="612.5" y="303.64">incluir&#160;3</text></g><!--link n0b to l0--><g id="link_n0b_l0"><path codeLine="43" d="M638.45,262.24 C649.26,270.47 661.75,280.96 671.5,291.95 C683.67,305.66 691.6568,318.3091 698.8168,331.2591 " fill="none" id="n0b-to-l0" style="stroke:#181818;stroke-width:1.0;"/><polygon fill="#181818" points="701.72,336.51,700.8658,326.6983,699.3007,332.1343,693.8647,330.5692,701.72,336.51" style="stroke:#181818;stroke-width:1.0;"/><text fill="#000000" font-family="Courier" font-size="10" lengthAdjust="spacing" textLength="54" x="683.64" y="303.64">excluir&#160;3</text></g><!--SRC=[VP4zJyCm443t_8fJM8hKIluG2mCIL6A4WH5ri1q7JDCONH8LyUj9NCTnN8lrtdldsEcEflqMA4xmAh-qwfzjsx-8auPoRmSq6ikYooXlvbS3fH5xHBJdV-jWN69ojVZ9OgLnRnkB81kXZjV6EFn0ExJLnJf_cbuNXNKGobf8D4hWXcpX_N1RWkW0CvYEc7hUqZoVCOdw3Pl2BGifIraWCY6XIPDmZbmEcixOyeC33MKSRfJITtMz4aOCNe2Sm1U1vmI7lG0PWKKRM6u3YpQmt0OU2JmdUEu44Wa50kogtSFuZW3tO5hL30Q1BdCopVNFF2z6qGSi2bWqbr4mpecVCrZxyvoi_M9Qx8Zx7ql2LoJ-ged8cN18ca0WQPY_edlpLREGj27pDWv94mX9cZy0]--></g></svg>