<?xml version="1.0" encoding="us-ascii" standalone="no"?><svg xmlns="http://www.w3.org/2000/svg" xmlns:xlink="http://www.w3.org/1999/xlink" contentStyleType="text/css" height="369px" preserveAspectRatio="none" style="width:976px;height:369px;background:#FFFFFF;" version="1.1" viewBox="0 0 976 369" width="976px" zoomAndPan="magnify"><defs/><g><g id="elem_r"><rect fill="#FFFFFF" height="33.62" style="stroke:#000000;stroke-width:0.5;" width="128" x="437" y="7"/><text fill="#000000" font-family="Courier" font-size="10" lengthAdjust="spacing" textLength="114" x="444" y="19.69">(I)&#160;fabricar(0,&#160;[])</text><line style="stroke:#000000;stroke-width:0.5;" x1="438" x2="564" y1="24.62" y2="24.62"/></g><g id="elem_n1"><rect fill="#FFFFFF" height="33.62" style="stroke:#000000;stroke-width:0.5;" width="140" x="346" y="114.62"/><text fill="#000000" font-family="Courier" font-size="10" lengthAdjust="spacing" textLength="126" x="353" y="127.31">(II)&#160;fabricar(1,&#160;[1])</text><line style="stroke:#000000;stroke-width:0.5;" x1="347" x2="485" y1="132.24" y2="132.24"/></g><g id="elem_n0"><rect fill="#FFFFFF" height="33.62" style="stroke:#000000;stroke-width:0.5;" width="134" x="535" y="114.62"/><text fill="#000000" font-family="Courier" font-size="10" lengthAdjust="spacing" textLength="120" x="542" y="127.31">(IX)&#160;fabricar(1,&#160;[])</text><line style="stroke:#000000;stroke-width:0.5;" x1="536" x2="668" y1="132.24" y2="132.24"/></g><g id="elem_n12"><rect fill="#FFFFFF" height="33.62" style="stroke:#000000;stroke-width:0.5;" width="158" x="110" y="222.24"/><text fill="#000000" font-family="Courier" font-size="10" lengthAdjust="spacing" textLength="144" x="117" y="234.93">(III)&#160;fabricar(2,&#160;[1,2])</text><line style="stroke:#000000;stroke-width:0.5;" x1="111" x2="267" y1="239.86" y2="239.86"/></g><g id="elem_n1b"><rect fill="#FFFFFF" height="33.62" style="stroke:#000000;stroke-width:0.5;" width="140" x="346" y="222.24"/><text fill="#000000" font-family="Courier" font-size="10" lengthAdjust="spacing" textLength="126" x="353" y="234.93">(VI)&#160;fabricar(2,&#160;[1])</text><line style="stroke:#000000;stroke-width:0.5;" x1="347" x2="485" y1="239.86" y2="239.86"/></g><g id="elem_n2"><rect fill="#FFFFFF" height="33.62" style="stroke:#000000;stroke-width:0.5;" width="134" x="535" y="222.24"/><text fill="#000000" font-family="Courier" font-size="10" lengthAdjust="spacing" textLength="120" x="542" y="234.93">(X)&#160;fabricar(2,&#160;[2])</text><line style="stroke:#000000;stroke-width:0.5;" x1="536" x2="668" y1="239.86" y2="239.86"/></g><g id="elem_n0b"><rect fill="#FFFFFF" height="33.62" style="stroke:#000000;stroke-width:0.5;" width="146" x="745" y="222.24"/><text fill="#000000" font-family="Courier" font-size="10" lengthAdjust="spacing" textLength="132" x="752" y="234.93">(XIII)&#160;fabricar(2,&#160;[])</text><line style="stroke:#000000;stroke-width:0.5;" x1="746" x2="890" y1="239.86" y2="239.86"/></g><g id="elem_l123"><rect fill="#CCE5FF" height="33.62" style="stroke:#000000;stroke-width:0.5;" width="104" x="7" y="329.86"/><text fill="#000000" font-family="Courier" font-size="10" lengthAdjust="spacing" textLength="90" x="14" y="342.55">(IV)&#160;-&gt;&#160;[1,2,3]</text><line style="stroke:#000000;stroke-width:0.5;" x1="8" x2="110" y1="347.48" y2="347.48"/></g><g id="elem_l12"><rect fill="#CCE5FF" height="33.62" style="stroke:#000000;stroke-width:0.5;" width="86" x="146" y="329.86"/><text fill="#000000" font-family="Courier" font-size="10" lengthAdjust="spacing" textLength="72" x="153" y="342.55">(V)&#160;-&gt;&#160;[1,2]</text><line style="stroke:#000000;stroke-width:0.5;" x1="147" x2="231" y1="347.48" y2="347.48"/></g><g id="elem_l13"><rect fill="#CCE5FF" height="33.62" style="stroke:#000000;stroke-width:0.5;" width="98" x="267" y="329.86"/><text fill="#000000" font-family="Courier" font-size="10" lengthAdjust="spacing" textLength="84" x="274" y="342.55">(VII)&#160;-&gt;&#160;[1,3]</text><line style="stroke:#000000;stroke-width:0.5;" x1="268" x2="364" y1="347.48" y2="347.48"/></g><g id="elem_l1"><rect fill="#CCE5FF" height="33.62" style="stroke:#000000;stroke-width:0.5;" width="92" x="400" y="329.86"/><text fill="#000000" font-family="Courier" font-size="10" lengthAdjust="spacing" textLength="78" x="407" y="342.55">(VIII)&#160;-&gt;&#160;[1]</text><line style="stroke:#000000;stroke-width:0.5;" x1="401" x2="491" y1="347.48" y2="347.48"/></g><g id="elem_l23"><rect fill="#CCE5FF" height="33.62" style="stroke:#000000;stroke-width:0.5;" width="92" x="527" y="329.86"/><text fill="#000000" font-family="Courier" font-size="10" lengthAdjust="spacing" textLength="78" x="534" y="342.55">(XI)&#160;-&gt;&#160;[2,3]</text><line style="stroke:#000000;stroke-width:0.5;" x1="528" x2="618" y1="347.48" y2="347.48"/></g><g id="elem_l2"><rect fill="#CCE5FF" height="33.62" style="stroke:#000000;stroke-width:0.5;" width="86" x="654" y="329.86"/><text fill="#000000" font-family="Courier" font-size="10" lengthAdjust="spacing" textLength="72" x="661" y="342.55">(XII)&#160;-&gt;&#160;[2]</text><line style="stroke:#000000;stroke-width:0.5;" x1="655" x2="739" y1="347.48" y2="347.48"/></g><g id="elem_l3"><rect fill="#CCE5FF" height="33.62" style="stroke:#000000;stroke-width:0.5;" width="86" x="775" y="329.86"/><text fill="#000000" font-family="Courier" font-size="10" lengthAdjust="spacing" textLength="72" x="782" y="342.55">(XIV)&#160;-&gt;&#160;[3]</text><line style="stroke:#000000;stroke-width:0.5;" x1="776" x2="860" y1="347.48" y2="347.48"/></g><g id="elem_l0"><rect fill="#CCE5FF" height="33.62" style="stroke:#000000;stroke-width:0.5;" width="74" x="896" y="329.86"/><text fill="#000000" font-family="Courier" font-size="10" lengthAdjust="spacing" textLength="60" x="903" y="342.55">(XV)&#160;-&gt;&#160;[]</text><line style="stroke:#000000;stroke-width:0.5;" x1="897" x2="969" y1="347.48" y2="347.48"/></g><!--link r to n1--><g id="link_r_n1"><path codeLine="28" d="M488.09,40.85 C472.11,60.7 448.8216,89.6456 432.7916,109.5656 " fill="none" id="r-to-n1" style="stroke:#181818;stroke-width:1.0;"/><polygon fill="#181818" points="429.03,114.24,437.7887,109.7361,432.1647,110.3446,431.5561,104.7206,429.03,114.24" style="stroke:#181818;stroke-width:1.0;"/><text fill="#000000" font-family="Courier" font-size="9" lengthAdjust="spacing" textLength="45" x="464.59" y="81.2411">incluir&#160;1</text></g><!--link r to n0--><g id="link_r_n0"><path codeLine="29" d="M516.34,40.85 C535.32,60.7 563.3231,89.9837 582.3731,109.9037 " fill="none" id="r-to-n0" style="stroke:#181818;stroke-width:1.0;"/><polygon fill="#181818" points="586.52,114.24,583.1905,104.971,583.0643,110.6264,577.4088,110.5002,586.52,114.24" style="stroke:#181818;stroke-width:1.0;"/><text fill="#000000" font-family="Courier" font-size="9" lengthAdjust="spacing" textLength="45" x="558.55" y="81.2411">excluir&#160;1</text></g><!--link n1 to n12--><g id="link_n1_n12"><path codeLine="31" d="M381.03,148.7 C338.37,168.55 272.1299,199.3687 229.4499,219.2287 " fill="none" id="n1-to-n12" style="stroke:#181818;stroke-width:1.0;"/><polygon fill="#181818" points="224.01,221.76,233.8574,221.5896,228.5432,219.6506,230.4823,214.3364,224.01,221.76" style="stroke:#181818;stroke-width:1.0;"/><text fill="#000000" font-family="Courier" font-size="9" lengthAdjust="spacing" textLength="45" x="317.09" y="188.8611">incluir&#160;2</text></g><!--link n1 to n1b--><g id="link_n1_n1b"><path codeLine="32" d="M416,148.47 C416,168.32 416,195.94 416,215.86 " fill="none" id="n1-to-n1b" style="stroke:#181818;stroke-width:1.0;"/><polygon fill="#181818" points="416,221.86,420,212.86,416,216.86,412,212.86,416,221.86" style="stroke:#181818;stroke-width:1.0;"/><text fill="#000000" font-family="Courier" font-size="9" lengthAdjust="spacing" textLength="45" x="417" y="188.8611">excluir&#160;2</text></g><!--link n0 to n2--><g id="link_n0_n2"><path codeLine="33" d="M602,148.47 C602,168.32 602,195.94 602,215.86 " fill="none" id="n0-to-n2" style="stroke:#181818;stroke-width:1.0;"/><polygon fill="#181818" points="602,221.86,606,212.86,602,216.86,598,212.86,602,221.86" style="stroke:#181818;stroke-width:1.0;"/><text fill="#000000" font-family="Courier" font-size="9" lengthAdjust="spacing" textLength="45" x="603" y="188.8611">incluir&#160;2</text></g><!--link n0 to n0b--><g id="link_n0_n0b"><path codeLine="34" d="M635.28,148.7 C675.87,168.55 738.69,199.2641 779.3,219.1241 " fill="none" id="n0-to-n0b" style="stroke:#181818;stroke-width:1.0;"/><polygon fill="#181818" points="784.69,221.76,778.3623,214.2128,780.1983,219.5634,774.8477,221.3994,784.69,221.76" style="stroke:#181818;stroke-width:1.0;"/><text fill="#000000" font-family="Courier" font-size="9" lengthAdjust="spacing" textLength="45" x="723.93" y="188.8611">excluir&#160;2</text></g><!--link n12 to l123--><g id="link_n12_l123"><path codeLine="36" d="M168.97,256.32 C144.47,276.23 107.907,305.9368 83.497,325.7668 " fill="none" id="n12-to-l123" style="stroke:#181818;stroke-width:1.0;"/><polygon fill="#181818" points="78.84,329.55,88.3476,326.9799,82.7208,326.3973,83.3033,320.7706,78.84,329.55" style="stroke:#181818;stroke-width:1.0;"/><text fill="#000000" font-family="Courier" font-size="9" lengthAdjust="spacing" textLength="45" x="132.78" y="296.4811">incluir&#160;3</text></g><!--link n12 to l12--><g id="link_n12_l12"><path codeLine="37" d="M189,256.09 C189,275.94 189,303.56 189,323.48 " fill="none" id="n12-to-l12" style="stroke:#181818;stroke-width:1.0;"/><polygon fill="#181818" points="189,329.48,193,320.48,189,324.48,185,320.48,189,329.48" style="stroke:#181818;stroke-width:1.0;"/><text fill="#000000" font-family="Courier" font-size="9" lengthAdjust="spacing" textLength="45" x="190" y="296.4811">excluir&#160;3</text></g><!--link n1b to l13--><g id="link_n1b_l13"><path codeLine="38" d="M400.81,256.09 C382.02,275.94 354.3151,305.203 335.4551,325.123 " fill="none" id="n1b-to-l13" style="stroke:#181818;stroke-width:1.0;"/><polygon fill="#181818" points="331.33,329.48,340.4224,325.6946,334.7676,325.8492,334.613,320.1944,331.33,329.48" style="stroke:#181818;stroke-width:1.0;"/><text fill="#000000" font-family="Courier" font-size="9" lengthAdjust="spacing" textLength="45" x="372.99" y="296.4811">incluir&#160;3</text></g><!--link n1b to l1--><g id="link_n1b_l1"><path codeLine="39" d="M420.56,256.09 C426.19,275.94 434.1001,303.7885 439.7601,323.7085 " fill="none" id="n1b-to-l1" style="stroke:#181818;stroke-width:1.0;"/><polygon fill="#181818" points="441.4,329.48,442.7878,319.7294,440.0334,324.6704,435.0924,321.916,441.4,329.48" style="stroke:#181818;stroke-width:1.0;"/><text fill="#000000" font-family="Courier" font-size="9" lengthAdjust="spacing" textLength="45" x="433.8" y="296.4811">excluir&#160;3</text></g><!--link n2 to l23--><g id="link_n2_l23"><path codeLine="40" d="M597.6,256.09 C592.14,275.94 584.5088,303.7742 579.0388,323.6942 " fill="none" id="n2-to-l23" style="stroke:#181818;stroke-width:1.0;"/><polygon fill="#181818" points="577.45,329.48,583.6904,321.8604,578.774,324.6585,575.976,319.7421,577.45,329.48" style="stroke:#181818;stroke-width:1.0;"/><text fill="#000000" font-family="Courier" font-size="9" lengthAdjust="spacing" textLength="45" x="590.24" y="296.4811">incluir&#160;3</text></g><!--link n2 to l2--><g id="link_n2_l2"><path codeLine="41" d="M616.84,256.1 C624.91,264.86 635.04,275.92 644,285.86 C657.28,300.6 668.2942,313.0275 678.9342,325.1075 " fill="none" id="n2-to-l2" style="stroke:#181818;stroke-width:1.0;"/><polygon fill="#181818" points="682.9,329.61,679.953,320.2124,679.5952,325.8579,673.9497,325.5001,682.9,329.61" style="stroke:#181818;stroke-width:1.0;"/><text fill="#000000" font-family="Courier" font-size="9" lengthAdjust="spacing" textLength="45" x="656.69" y="296.4811">excluir&#160;3</text></g><!--link n0b to l3--><g id="link_n0b_l3"><path codeLine="42" d="M818,256.09 C818,275.94 818,303.56 818,323.48 " fill="none" id="n0b-to-l3" style="stroke:#181818;stroke-width:1.0;"/><polygon fill="#181818" points="818,329.48,822,320.48,818,324.48,814,320.48,818,329.48" style="stroke:#181818;stroke-width:1.0;"/><text fill="#000000" font-family="Courier" font-size="9" lengthAdjust="spacing" textLength="45" x="819" y="296.4811">incluir&#160;3</text></g><!--link n0b to l0--><g id="link_n0b_l0"><path codeLine="43" d="M838.22,256.17 C848.78,264.76 861.8,275.65 873,285.86 C888.65,300.13 901.5028,312.9629 913.4028,325.2329 " fill="none" id="n0b-to-l0" style="stroke:#181818;stroke-width:1.0;"/><polygon fill="#181818" points="917.58,329.54,914.1856,320.2946,914.099,325.9508,908.4428,325.8642,917.58,329.54" style="stroke:#181818;stroke-width:1.0;"/><text fill="#000000" font-family="Courier" font-size="9" lengthAdjust="spacing" textLength="45" x="887.54" y="296.4811">excluir&#160;3</text></g><!--SRC=[VT51IyCm50VmUp_5eruss21DyA07GGU25pq8eo0x95scTLqZsSR4Js-J9kbh6dPzx_V_zuKUztNxmpK_m9lubjNfMRMdLtwGaA_KMTTIvzanGTxhFma5GRj7hTNbQZe86xwRz3uflPLwfHgbGJIysaz5D_pKwjnkUtNvgayoovHTGZvxcSEE2rrNNC_80Zusynpu4JGcs1ITAHng2uJA27b3HasuYfgg1GrbT83hYGjA3AgCKAX2JUNqc-4oWKzRps7vO0zQi4qEHZG5PN1JLV9sjqEt1MWOU0a9QJxTMrlPIvQMdlQbLa92biwvAtj9ML9wYkwawKxt9eOaIqe7dUibGJBJ0CjjHzhk-dkeswevrngAOKxCNFxwUTP15w0eGD5Se40t9svEOUpzd8nzPehjnlxE8S966toLsGY_OH1bmWQY37LFjBzZb1asSORuDWPH9cn8bFa7]--></g></svg>