<?xml version="1.0" encoding="us-ascii" standalone="no"?><svg xmlns="http://www.w3.org/2000/svg" xmlns:xlink="http://www.w3.org/1999/xlink" contentStyleType="text/css" height="610px" preserveAspectRatio="none" style="width:623px;height:610px;background:#FFFFFF;" version="1.1" viewBox="0 0 623 610" width="623px" zoomAndPan="magnify"><defs/><g><g id="elem_r"><rect fill="#FFFFFF" height="33.62" style="stroke:#000000;stroke-width:0.5;" width="122" x="442" y="7"/><text fill="#000000" font-family="Courier" font-size="10" lengthAdjust="spacing" textLength="108" x="449" y="19.69">buscar(0,&#160;r=7,&#160;[])</text><line style="stroke:#000000;stroke-width:0.5;" x1="443" x2="563" y1="24.62" y2="24.62"/></g><g id="elem_n1"><rect fill="#FFFFFF" height="33.62" style="stroke:#000000;stroke-width:0.5;" width="128" x="368" y="114.62"/><text fill="#000000" font-family="Courier" font-size="10" lengthAdjust="spacing" textLength="114" x="375" y="127.31">buscar(1,&#160;r=6,&#160;[1])</text><line style="stroke:#000000;stroke-width:0.5;" x1="369" x2="495" y1="132.24" y2="132.24"/></g><g id="elem_n12"><rect fill="#FFFFFF" height="33.62" style="stroke:#000000;stroke-width:0.5;" width="140" x="288" y="222.24"/><text fill="#000000" font-family="Courier" font-size="10" lengthAdjust="spacing" textLength="126" x="295" y="234.93">buscar(2,&#160;r=4,&#160;[1,2])</text><line style="stroke:#000000;stroke-width:0.5;" x1="289" x2="427" y1="239.86" y2="239.86"/></g><g id="elem_n123"><rect fill="#FFFFFF" height="33.62" style="stroke:#000000;stroke-width:0.5;" width="152" x="192" y="329.86"/><text fill="#000000" font-family="Courier" font-size="10" lengthAdjust="spacing" textLength="138" x="199" y="342.55">buscar(3,&#160;r=1,&#160;[1,2,3])</text><line style="stroke:#000000;stroke-width:0.5;" x1="193" x2="343" y1="347.48" y2="347.48"/></g><g id="elem_n12x"><rect fill="#FFFFFF" height="33.62" style="stroke:#000000;stroke-width:0.5;" width="140" x="379" y="329.86"/><text fill="#000000" font-family="Courier" font-size="10" lengthAdjust="spacing" textLength="126" x="386" y="342.55">buscar(3,&#160;r=4,&#160;[1,2])</text><line style="stroke:#000000;stroke-width:0.5;" x1="380" x2="518" y1="347.48" y2="347.48"/></g><g id="elem_n1234"><rect fill="#FFFFFF" height="33.62" style="stroke:#000000;stroke-width:0.5;" width="170" x="7" y="456.29"/><text fill="#000000" font-family="Courier" font-size="10" lengthAdjust="spacing" textLength="156" x="14" y="468.98">buscar(4,&#160;r=-3,&#160;[1,2,3,4])</text><line style="stroke:#000000;stroke-width:0.5;" x1="8" x2="176" y1="473.91" y2="473.91"/></g><g id="elem_n123x4"><rect fill="#FFFFFF" height="33.62" style="stroke:#000000;stroke-width:0.5;" width="158" x="212" y="456.29"/><text fill="#000000" font-family="Courier" font-size="10" lengthAdjust="spacing" textLength="144" x="219" y="468.98">buscar(4,&#160;r=1,&#160;&#160;[1,2,3])</text><line style="stroke:#000000;stroke-width:0.5;" x1="213" x2="369" y1="473.91" y2="473.91"/></g><g id="elem_f1"><rect fill="#FFCCCC" height="33.62" style="stroke:#000000;stroke-width:0.5;" width="44" x="39" y="570.72"/><text fill="#000000" font-family="Courier" font-size="10" lengthAdjust="spacing" textLength="30" x="46" y="583.41">false</text><line style="stroke:#000000;stroke-width:0.5;" x1="40" x2="82" y1="588.34" y2="588.34"/></g><g id="elem_f2"><rect fill="#FFCCCC" height="33.62" style="stroke:#000000;stroke-width:0.5;" width="44" x="126" y="570.72"/><text fill="#000000" font-family="Courier" font-size="10" lengthAdjust="spacing" textLength="30" x="133" y="583.41">false</text><line style="stroke:#000000;stroke-width:0.5;" x1="127" x2="169" y1="588.34" y2="588.34"/></g><g id="elem_f3"><rect fill="#FFCCCC" height="33.62" style="stroke:#000000;stroke-width:0.5;" width="44" x="241" y="570.72"/><text fill="#000000" font-family="Courier" font-size="10" lengthAdjust="spacing" textLength="30" x="248" y="583.41">false</text><line style="stroke:#000000;stroke-width:0.5;" x1="242" x2="284" y1="588.34" y2="588.34"/></g><g id="elem_f4"><rect fill="#FFCCCC" height="33.62" style="stroke:#000000;stroke-width:0.5;" width="44" x="328" y="570.72"/><text fill="#000000" font-family="Courier" font-size="10" lengthAdjust="spacing" textLength="30" x="335" y="583.41">false</text><line style="stroke:#000000;stroke-width:0.5;" x1="329" x2="371" y1="588.34" y2="588.34"/></g><g id="elem_sol"><rect fill="#CCFFCC" height="47.24" style="stroke:#000000;stroke-width:0.5;" width="62" x="409" y="449.48"/><text fill="#000000" font-family="Courier" font-size="10" lengthAdjust="spacing" textLength="48" x="416" y="462.17">SOLUCION</text><text fill="#000000" font-family="Courier" font-size="10" lengthAdjust="spacing" textLength="42" x="419" y="475.79">[1,2,4]</text><line style="stroke:#000000;stroke-width:0.5;" x1="410" x2="470" y1="480.72" y2="480.72"/></g><g id="elem_u1"><rect fill="#E8E8E8" height="33.62" style="stroke:#000000;stroke-width:0.5;" width="86" x="531" y="114.62"/><text fill="#000000" font-family="Courier" font-size="10" lengthAdjust="spacing" textLength="72" x="538" y="127.31">sin&#160;explorar</text><line style="stroke:#000000;stroke-width:0.5;" x1="532" x2="616" y1="132.24" y2="132.24"/></g><g id="elem_u2"><rect fill="#E8E8E8" height="33.62" style="stroke:#000000;stroke-width:0.5;" width="86" x="463" y="222.24"/><text fill="#000000" font-family="Courier" font-size="10" lengthAdjust="spacing" textLength="72" x="470" y="234.93">sin&#160;explorar</text><line style="stroke:#000000;stroke-width:0.5;" x1="464" x2="548" y1="239.86" y2="239.86"/></g><g id="elem_u3"><rect fill="#E8E8E8" height="33.62" style="stroke:#000000;stroke-width:0.5;" width="86" x="506" y="456.29"/><text fill="#000000" font-family="Courier" font-size="10" lengthAdjust="spacing" textLength="72" x="513" y="468.98">sin&#160;explorar</text><line style="stroke:#000000;stroke-width:0.5;" x1="507" x2="591" y1="473.91" y2="473.91"/></g><!--link r to n1--><g id="link_r_n1"><path codeLine="28" d="M492.22,40.85 C478.87,60.7 459.6289,89.3416 446.2289,109.2616 " fill="none" id="r-to-n1" style="stroke:#181818;stroke-width:1.0;"/><polygon fill="#181818" points="442.88,114.24,451.2223,109.005,445.6708,110.0913,444.5845,104.5398,442.88,114.24" style="stroke:#181818;stroke-width:1.0;"/><text fill="#000000" font-family="Courier" font-size="9" lengthAdjust="spacing" textLength="45" x="472.75" y="81.2411">incluir&#160;1</text></g><!--link r to u1--><g id="link_r_u1"><path codeLine="29" d="M513.78,40.85 C527.13,60.7 546.3711,89.3416 559.7711,109.2616 " fill="none" id="r-to-u1" style="stroke:#808080;stroke-width:1.0;"/><polygon fill="#808080" points="563.12,114.24,561.4155,104.5398,560.3292,110.0913,554.7777,109.005,563.12,114.24" style="stroke:#808080;stroke-width:1.0;"/><text fill="#000000" font-family="Courier" font-size="9" lengthAdjust="spacing" textLength="45" x="543.75" y="81.2411">excluir&#160;1</text></g><!--link n1 to n12--><g id="link_n1_n12"><path codeLine="30" d="M420.76,148.47 C406.85,168.32 386.7434,197.0265 372.7834,216.9465 " fill="none" id="n1-to-n12" style="stroke:#181818;stroke-width:1.0;"/><polygon fill="#181818" points="369.34,221.86,377.7808,216.7853,372.2095,217.7654,371.2294,212.1941,369.34,221.86" style="stroke:#181818;stroke-width:1.0;"/><text fill="#000000" font-family="Courier" font-size="9" lengthAdjust="spacing" textLength="45" x="400.43" y="188.8611">incluir&#160;2</text></g><!--link n1 to u2--><g id="link_n1_u2"><path codeLine="31" d="M443.24,148.47 C457.15,168.32 477.2566,197.0265 491.2166,216.9465 " fill="none" id="n1-to-u2" style="stroke:#808080;stroke-width:1.0;"/><polygon fill="#808080" points="494.66,221.86,492.7706,212.1941,491.7905,217.7654,486.2192,216.7853,494.66,221.86" style="stroke:#808080;stroke-width:1.0;"/><text fill="#000000" font-family="Courier" font-size="9" lengthAdjust="spacing" textLength="45" x="474.43" y="188.8611">excluir&#160;2</text></g><!--link n12 to n123--><g id="link_n12_n123"><path codeLine="32" d="M344.33,256.09 C327.41,275.94 302.6609,304.9927 285.6909,324.9127 " fill="none" id="n12-to-n123" style="stroke:#181818;stroke-width:1.0;"/><polygon fill="#181818" points="281.8,329.48,290.6813,325.223,285.0425,325.6739,284.5915,320.035,281.8,329.48" style="stroke:#181818;stroke-width:1.0;"/><text fill="#000000" font-family="Courier" font-size="9" lengthAdjust="spacing" textLength="45" x="319.39" y="296.4811">incluir&#160;3</text></g><!--link n12 to n12x--><g id="link_n12_n12x"><path codeLine="33" d="M371.82,256.09 C388.92,275.94 413.974,305.0141 431.134,324.9341 " fill="none" id="n12-to-n12x" style="stroke:#181818;stroke-width:1.0;"/><polygon fill="#181818" points="435.05,329.48,432.2066,320.0505,431.7867,325.6918,426.1454,325.2719,435.05,329.48" style="stroke:#181818;stroke-width:1.0;"/><text fill="#000000" font-family="Courier" font-size="9" lengthAdjust="spacing" textLength="45" x="409.95" y="296.4811">excluir&#160;3</text></g><!--link n123 to n1234--><g id="link_n123_n1234"><path codeLine="34" d="M244.99,363.94 C211.26,387.78 153.6495,428.5167 119.9095,452.3667 " fill="none" id="n123-to-n1234" style="stroke:#181818;stroke-width:1.0;"/><polygon fill="#181818" points="115.01,455.83,124.6682,453.9013,119.0929,452.9439,120.0504,447.3686,115.01,455.83" style="stroke:#181818;stroke-width:1.0;"/><text fill="#000000" font-family="Courier" font-size="9" lengthAdjust="spacing" textLength="45" x="201.94" y="410.1011">incluir&#160;4</text></g><!--link n123 to n123x4--><g id="link_n123_n123x4"><path codeLine="35" d="M271.01,363.94 C275.41,387.78 282.4891,426.08 286.8991,449.93 " fill="none" id="n123-to-n123x4" style="stroke:#181818;stroke-width:1.0;"/><polygon fill="#181818" points="287.99,455.83,290.2869,446.2527,287.0809,450.9133,282.4203,447.7073,287.99,455.83" style="stroke:#181818;stroke-width:1.0;"/><text fill="#000000" font-family="Courier" font-size="9" lengthAdjust="spacing" textLength="45" x="281.88" y="410.1011">excluir&#160;4</text></g><!--link n1234 to f1--><g id="link_n1234_f1"><path codeLine="36" d="M77.95,490.4 C70.44,500.21 61.94,513.37 58,526.72 C53.76,541.08 54.2207,552.2972 56.3307,564.5372 " fill="none" id="n1234-to-f1" style="stroke:#181818;stroke-width:1.0;"/><polygon fill="#181818" points="57.35,570.45,59.7629,560.9013,56.5006,565.5227,51.8792,562.2603,57.35,570.45" style="stroke:#181818;stroke-width:1.0;"/><text fill="#000000" font-family="Courier" font-size="9" lengthAdjust="spacing" textLength="45" x="59" y="537.3411">incluir&#160;5</text></g><!--link n1234 to f2--><g id="link_n1234_f2"><path codeLine="37" d="M100.02,490.21 C110.67,511.58 126.6748,543.7194 137.3148,565.0794 " fill="none" id="n1234-to-f2" style="stroke:#181818;stroke-width:1.0;"/><polygon fill="#181818" points="139.99,570.45,139.5575,560.6106,137.7606,565.9745,132.3968,564.1776,139.99,570.45" style="stroke:#181818;stroke-width:1.0;"/><text fill="#000000" font-family="Courier" font-size="9" lengthAdjust="spacing" textLength="45" x="126.02" y="537.3411">excluir&#160;5</text></g><!--link n123x4 to f3--><g id="link_n123x4_f3"><path codeLine="38" d="M278.5,490.13 C271.56,500.06 263.63,513.42 260,526.72 C256.09,541.06 256.5086,552.1292 258.5086,564.3192 " fill="none" id="n123x4-to-f3" style="stroke:#181818;stroke-width:1.0;"/><polygon fill="#181818" points="259.48,570.24,261.9701,560.7111,258.6705,565.306,254.0756,562.0064,259.48,570.24" style="stroke:#181818;stroke-width:1.0;"/><text fill="#000000" font-family="Courier" font-size="9" lengthAdjust="spacing" textLength="45" x="261" y="537.3411">incluir&#160;5</text></g><!--link n123x4 to f4--><g id="link_n123x4_f4"><path codeLine="39" d="M299.45,490.21 C310.67,511.58 327.5618,543.7772 338.7718,565.1372 " fill="none" id="n123x4-to-f4" style="stroke:#181818;stroke-width:1.0;"/><polygon fill="#181818" points="341.56,570.45,340.9195,560.622,339.2365,566.0227,333.8358,564.3396,341.56,570.45" style="stroke:#181818;stroke-width:1.0;"/><text fill="#000000" font-family="Courier" font-size="9" lengthAdjust="spacing" textLength="45" x="326.78" y="537.3411">excluir&#160;5</text></g><!--link n12x to sol--><g id="link_n12x_sol"><path codeLine="40" d="M447.82,363.94 C446.25,385.68 443.8932,418.3457 442.1032,443.0757 " fill="none" id="n12x-to-sol" style="stroke:#181818;stroke-width:1.0;"/><polygon fill="#181818" points="441.67,449.06,446.3093,440.3723,442.031,444.073,438.3302,439.7947,441.67,449.06" style="stroke:#181818;stroke-width:1.0;"/><text fill="#000000" font-family="Courier" font-size="9" lengthAdjust="spacing" textLength="45" x="446.57" y="404.1011">incluir&#160;4</text><text fill="#000000" font-family="Courier" font-size="9" lengthAdjust="spacing" textLength="35" x="451.57" y="416.3592">r=4-4=0</text></g><!--link n12x to u3--><g id="link_n12x_u3"><path codeLine="41" d="M470.08,363.77 C480.11,372.02 491.87,382.61 501,393.48 C517.55,413.2 529.4986,433.8884 538.1386,450.4784 " fill="none" id="n12x-to-u3" style="stroke:#808080;stroke-width:1.0;"/><polygon fill="#808080" points="540.91,455.8,540.3005,445.97,538.6005,451.3654,533.2051,449.6653,540.91,455.8" style="stroke:#808080;stroke-width:1.0;"/><text fill="#000000" font-family="Courier" font-size="9" lengthAdjust="spacing" textLength="45" x="519.91" y="410.1011">excluir&#160;4</text></g><!--SRC=[ZPDRQy8m643V-oj2VTcW1NFP5Hnimc0mz47sD7s8DNMTDP6l1hlz-YMfzavP-r9wplaIKfhj4ddWmFTelluMqV5LoUECxmNofqf38i3tiXvbaVmAXCSrzWoWJeDrQRZueJFtHS56m5Ib2j0wvT6kQvYNMr1QRWhhz9KSXUSf1v6_rbd4uMeS89ZS1UXpTUqZdY5e2zWAjqR0PqFYjaAimgmIa58YROjQ2nTMG2kFzegTSNbROrOBwMLWm6eZMQzi5k-kdhFgJ6AUPiAH6ADH74VcweDa2D8Xo4fOqiNy_MFwDfyjfTiRMpapKoaQHP6LApLB91BvmNnD3ixIPflYtju33lc7Gql70sIkS1C-cUEnZ-WH9J9ATG88rw0ku6WB_CSe8hyehZhtfDcJ6jIajxSAgNhQw6aJvWvUIWTfLR9woLemPxMoWEmyECQDDM-Qa3JMBA0PLa3QKvQGTSkyGFPRDqgsbEOF2DbaNBCqxJqmvlq1]--></g></svg>