<?xml version="1.0" encoding="us-ascii" standalone="no"?><svg xmlns="http://www.w3.org/2000/svg" xmlns:xlink="http://www.w3.org/1999/xlink" contentStyleType="text/css" height="613px" preserveAspectRatio="none" style="width:1498px;height:613px;background:#FFFFFF;" version="1.1" viewBox="0 0 1498 613" width="1498px" zoomAndPan="magnify"><defs/><g><g id="elem_r"><rect fill="#FFFFFF" height="32.2581" style="stroke:#000000;stroke-width:0.5;" width="49" x="790" y="7"/><text fill="#000000" font-family="Courier" font-size="9" lengthAdjust="spacing" textLength="35" x="797" y="18.6211">r=7,&#160;[]</text><line style="stroke:#000000;stroke-width:0.5;" x1="791" x2="838" y1="23.2581" y2="23.2581"/></g><g id="elem_n1"><rect fill="#FFFFFF" height="32.2581" style="stroke:#000000;stroke-width:0.5;" width="54" x="608.5" y="111.25"/><text fill="#000000" font-family="Courier" font-size="9" lengthAdjust="spacing" textLength="40" x="615.5" y="122.8711">r=6,&#160;[1]</text><line style="stroke:#000000;stroke-width:0.5;" x1="609.5" x2="661.5" y1="127.5081" y2="127.5081"/></g><g id="elem_n0"><rect fill="#FFFFFF" height="32.2581" style="stroke:#000000;stroke-width:0.5;" width="49" x="974" y="111.25"/><text fill="#000000" font-family="Courier" font-size="9" lengthAdjust="spacing" textLength="35" x="981" y="122.8711">r=7,&#160;[]</text><line style="stroke:#000000;stroke-width:0.5;" x1="975" x2="1022" y1="127.5081" y2="127.5081"/></g><g id="elem_n12"><rect fill="#FFFFFF" height="32.2581" style="stroke:#000000;stroke-width:0.5;" width="64" x="315.5" y="215.51"/><text fill="#000000" font-family="Courier" font-size="9" lengthAdjust="spacing" textLength="50" x="322.5" y="227.1311">r=4,&#160;[1,2]</text><line style="stroke:#000000;stroke-width:0.5;" x1="316.5" x2="378.5" y1="231.7681" y2="231.7681"/></g><g id="elem_n1x"><rect fill="#FFFFFF" height="32.2581" style="stroke:#000000;stroke-width:0.5;" width="54" x="608.5" y="215.51"/><text fill="#000000" font-family="Courier" font-size="9" lengthAdjust="spacing" textLength="40" x="615.5" y="227.1311">r=6,&#160;[1]</text><line style="stroke:#000000;stroke-width:0.5;" x1="609.5" x2="661.5" y1="231.7681" y2="231.7681"/></g><g id="elem_n02"><rect fill="#FFFFFF" height="32.2581" style="stroke:#000000;stroke-width:0.5;" width="54" x="971.5" y="215.51"/><text fill="#000000" font-family="Courier" font-size="9" lengthAdjust="spacing" textLength="40" x="978.5" y="227.1311">r=5,&#160;[2]</text><line style="stroke:#000000;stroke-width:0.5;" x1="972.5" x2="1024.5" y1="231.7681" y2="231.7681"/></g><g id="elem_n0x"><rect fill="#FFFFFF" height="32.2581" style="stroke:#000000;stroke-width:0.5;" width="49" x="1242" y="215.51"/><text fill="#000000" font-family="Courier" font-size="9" lengthAdjust="spacing" textLength="35" x="1249" y="227.1311">r=7,&#160;[]</text><line style="stroke:#000000;stroke-width:0.5;" x1="1243" x2="1290" y1="231.7681" y2="231.7681"/></g><g id="elem_n123"><rect fill="#FFFFFF" height="32.2581" style="stroke:#000000;stroke-width:0.5;" width="74" x="145.5" y="319.77"/><text fill="#000000" font-family="Courier" font-size="9" lengthAdjust="spacing" textLength="60" x="152.5" y="331.3911">r=1,&#160;[1,2,3]</text><line style="stroke:#000000;stroke-width:0.5;" x1="146.5" x2="218.5" y1="336.0281" y2="336.0281"/></g><g id="elem_n12x"><rect fill="#FFFFFF" height="32.2581" style="stroke:#000000;stroke-width:0.5;" width="64" x="315.5" y="319.77"/><text fill="#000000" font-family="Courier" font-size="9" lengthAdjust="spacing" textLength="50" x="322.5" y="331.3911">r=4,&#160;[1,2]</text><line style="stroke:#000000;stroke-width:0.5;" x1="316.5" x2="378.5" y1="336.0281" y2="336.0281"/></g><g id="elem_n1x3"><rect fill="#FFFFFF" height="32.2581" style="stroke:#000000;stroke-width:0.5;" width="64" x="560.5" y="319.77"/><text fill="#000000" font-family="Courier" font-size="9" lengthAdjust="spacing" textLength="50" x="567.5" y="331.3911">r=3,&#160;[1,3]</text><line style="stroke:#000000;stroke-width:0.5;" x1="561.5" x2="623.5" y1="336.0281" y2="336.0281"/></g><g id="elem_n1xx"><rect fill="#FFFFFF" height="32.2581" style="stroke:#000000;stroke-width:0.5;" width="54" x="659.5" y="319.77"/><text fill="#000000" font-family="Courier" font-size="9" lengthAdjust="spacing" textLength="40" x="666.5" y="331.3911">r=6,&#160;[1]</text><line style="stroke:#000000;stroke-width:0.5;" x1="660.5" x2="712.5" y1="336.0281" y2="336.0281"/></g><g id="elem_n023"><rect fill="#FFFFFF" height="32.2581" style="stroke:#000000;stroke-width:0.5;" width="64" x="914.5" y="319.77"/><text fill="#000000" font-family="Courier" font-size="9" lengthAdjust="spacing" textLength="50" x="921.5" y="331.3911">r=2,&#160;[2,3]</text><line style="stroke:#000000;stroke-width:0.5;" x1="915.5" x2="977.5" y1="336.0281" y2="336.0281"/></g><g id="elem_n02x"><rect fill="#FFFFFF" height="32.2581" style="stroke:#000000;stroke-width:0.5;" width="54" x="1023.5" y="319.77"/><text fill="#000000" font-family="Courier" font-size="9" lengthAdjust="spacing" textLength="40" x="1030.5" y="331.3911">r=5,&#160;[2]</text><line style="stroke:#000000;stroke-width:0.5;" x1="1024.5" x2="1076.5" y1="336.0281" y2="336.0281"/></g><g id="elem_n0x3"><rect fill="#FFFFFF" height="32.2581" style="stroke:#000000;stroke-width:0.5;" width="54" x="1239.5" y="319.77"/><text fill="#000000" font-family="Courier" font-size="9" lengthAdjust="spacing" textLength="40" x="1246.5" y="331.3911">r=4,&#160;[3]</text><line style="stroke:#000000;stroke-width:0.5;" x1="1240.5" x2="1292.5" y1="336.0281" y2="336.0281"/></g><g id="elem_n0xx"><rect fill="#FFFFFF" height="32.2581" style="stroke:#000000;stroke-width:0.5;" width="49" x="1386" y="319.77"/><text fill="#000000" font-family="Courier" font-size="9" lengthAdjust="spacing" textLength="35" x="1393" y="331.3911">r=7,&#160;[]</text><line style="stroke:#000000;stroke-width:0.5;" x1="1387" x2="1434" y1="336.0281" y2="336.0281"/></g><g id="elem_poda1"><rect fill="#FFCCCC" height="32.2581" style="stroke:#000000;stroke-width:0.5;" width="89" x="19" y="441.16"/><text fill="#000000" font-family="Courier" font-size="9" lengthAdjust="spacing" textLength="75" x="26" y="452.7811">r=-3,&#160;[1,2,3,4]</text><line style="stroke:#000000;stroke-width:0.5;" x1="20" x2="107" y1="457.4181" y2="457.4181"/></g><g id="elem_n123x"><rect fill="#FFEEEE" height="32.2581" style="stroke:#000000;stroke-width:0.5;" width="79" x="143" y="441.16"/><text fill="#000000" font-family="Courier" font-size="9" lengthAdjust="spacing" textLength="65" x="150" y="452.7811">r=1,&#160;&#160;[1,2,3]</text><line style="stroke:#000000;stroke-width:0.5;" x1="144" x2="221" y1="457.4181" y2="457.4181"/></g><g id="elem_sol1"><rect fill="#CCFFCC" height="44.5162" style="stroke:#000000;stroke-width:0.5;" width="54" x="256.5" y="435.03"/><text fill="#000000" font-family="Courier" font-size="9" lengthAdjust="spacing" textLength="40" x="263.5" y="446.6511">SOLUCION</text><text fill="#000000" font-family="Courier" font-size="9" lengthAdjust="spacing" textLength="35" x="266" y="458.9092">[1,2,4]</text><line style="stroke:#000000;stroke-width:0.5;" x1="257.5" x2="309.5" y1="463.5462" y2="463.5462"/></g><g id="elem_n12xx"><rect fill="#FFEEEE" height="32.2581" style="stroke:#000000;stroke-width:0.5;" width="69" x="345" y="441.16"/><text fill="#000000" font-family="Courier" font-size="9" lengthAdjust="spacing" textLength="55" x="352" y="452.7811">r=4,&#160;&#160;[1,2]</text><line style="stroke:#000000;stroke-width:0.5;" x1="346" x2="413" y1="457.4181" y2="457.4181"/></g><g id="elem_poda2"><rect fill="#FFCCCC" height="32.2581" style="stroke:#000000;stroke-width:0.5;" width="79" x="449" y="441.16"/><text fill="#000000" font-family="Courier" font-size="9" lengthAdjust="spacing" textLength="65" x="456" y="452.7811">r=-1,&#160;[1,3,4]</text><line style="stroke:#000000;stroke-width:0.5;" x1="450" x2="527" y1="457.4181" y2="457.4181"/></g><g id="elem_n1x3x"><rect fill="#FFEEEE" height="32.2581" style="stroke:#000000;stroke-width:0.5;" width="69" x="563" y="441.16"/><text fill="#000000" font-family="Courier" font-size="9" lengthAdjust="spacing" textLength="55" x="570" y="452.7811">r=3,&#160;&#160;[1,3]</text><line style="stroke:#000000;stroke-width:0.5;" x1="564" x2="631" y1="457.4181" y2="457.4181"/></g><g id="elem_n1xxx"><rect fill="#EEEEEE" height="32.2581" style="stroke:#000000;stroke-width:0.5;" width="29" x="667" y="441.16"/><text fill="#000000" font-family="Courier" font-size="9" lengthAdjust="spacing" textLength="15" x="674" y="452.7811">...</text><line style="stroke:#000000;stroke-width:0.5;" x1="668" x2="695" y1="457.4181" y2="457.4181"/></g><g id="elem_n1x4"><rect fill="#EEEEEE" height="32.2581" style="stroke:#000000;stroke-width:0.5;" width="29" x="734" y="441.16"/><text fill="#000000" font-family="Courier" font-size="9" lengthAdjust="spacing" textLength="15" x="741" y="452.7811">...</text><line style="stroke:#000000;stroke-width:0.5;" x1="735" x2="762" y1="457.4181" y2="457.4181"/></g><g id="elem_poda3"><rect fill="#FFCCCC" height="32.2581" style="stroke:#000000;stroke-width:0.5;" width="79" x="798" y="441.16"/><text fill="#000000" font-family="Courier" font-size="9" lengthAdjust="spacing" textLength="65" x="805" y="452.7811">r=-2,&#160;[2,3,4]</text><line style="stroke:#000000;stroke-width:0.5;" x1="799" x2="876" y1="457.4181" y2="457.4181"/></g><g id="elem_n023x"><rect fill="#FFEEEE" height="32.2581" style="stroke:#000000;stroke-width:0.5;" width="69" x="912" y="441.16"/><text fill="#000000" font-family="Courier" font-size="9" lengthAdjust="spacing" textLength="55" x="919" y="452.7811">r=2,&#160;&#160;[2,3]</text><line style="stroke:#000000;stroke-width:0.5;" x1="913" x2="980" y1="457.4181" y2="457.4181"/></g><g id="elem_n02x4"><rect fill="#FFEEEE" height="32.2581" style="stroke:#000000;stroke-width:0.5;" width="69" x="1016" y="441.16"/><text fill="#000000" font-family="Courier" font-size="9" lengthAdjust="spacing" textLength="55" x="1023" y="452.7811">r=1,&#160;&#160;[2,4]</text><line style="stroke:#000000;stroke-width:0.5;" x1="1017" x2="1084" y1="457.4181" y2="457.4181"/></g><g id="elem_n02xx"><rect fill="#FFFFFF" height="32.2581" style="stroke:#000000;stroke-width:0.5;" width="59" x="1120" y="441.16"/><text fill="#000000" font-family="Courier" font-size="9" lengthAdjust="spacing" textLength="45" x="1127" y="452.7811">r=5,&#160;&#160;[2]</text><line style="stroke:#000000;stroke-width:0.5;" x1="1121" x2="1178" y1="457.4181" y2="457.4181"/></g><g id="elem_sol3"><rect fill="#CCFFCC" height="44.5162" style="stroke:#000000;stroke-width:0.5;" width="54" x="1213.5" y="435.03"/><text fill="#000000" font-family="Courier" font-size="9" lengthAdjust="spacing" textLength="40" x="1220.5" y="446.6511">SOLUCION</text><text fill="#000000" font-family="Courier" font-size="9" lengthAdjust="spacing" textLength="25" x="1228" y="458.9092">[3,4]</text><line style="stroke:#000000;stroke-width:0.5;" x1="1214.5" x2="1266.5" y1="463.5462" y2="463.5462"/></g><g id="elem_n0x3x"><rect fill="#FFEEEE" height="32.2581" style="stroke:#000000;stroke-width:0.5;" width="59" x="1302" y="441.16"/><text fill="#000000" font-family="Courier" font-size="9" lengthAdjust="spacing" textLength="45" x="1309" y="452.7811">r=4,&#160;&#160;[3]</text><line style="stroke:#000000;stroke-width:0.5;" x1="1303" x2="1360" y1="457.4181" y2="457.4181"/></g><g id="elem_n0xx4"><rect fill="#EEEEEE" height="32.2581" style="stroke:#000000;stroke-width:0.5;" width="29" x="1396" y="441.16"/><text fill="#000000" font-family="Courier" font-size="9" lengthAdjust="spacing" textLength="15" x="1403" y="452.7811">...</text><line style="stroke:#000000;stroke-width:0.5;" x1="1397" x2="1424" y1="457.4181" y2="457.4181"/></g><g id="elem_n0xxx"><rect fill="#EEEEEE" height="32.2581" style="stroke:#000000;stroke-width:0.5;" width="29" x="1463" y="441.16"/><text fill="#000000" font-family="Courier" font-size="9" lengthAdjust="spacing" textLength="15" x="1470" y="452.7811">...</text><line style="stroke:#000000;stroke-width:0.5;" x1="1464" x2="1491" y1="457.4181" y2="457.4181"/></g><g id="elem_f1a"><rect fill="#FFAAAA" height="32.2581" style="stroke:#000000;stroke-width:0.5;" width="39" x="7" y="568.67"/><text fill="#000000" font-family="Courier" font-size="9" lengthAdjust="spacing" textLength="25" x="14" y="580.2911">false</text><line style="stroke:#000000;stroke-width:0.5;" x1="8" x2="45" y1="584.9281" y2="584.9281"/></g><g id="elem_f1b"><rect fill="#FFAAAA" height="32.2581" style="stroke:#000000;stroke-width:0.5;" width="39" x="81" y="568.67"/><text fill="#000000" font-family="Courier" font-size="9" lengthAdjust="spacing" textLength="25" x="88" y="580.2911">false</text><line style="stroke:#000000;stroke-width:0.5;" x1="82" x2="119" y1="584.9281" y2="584.9281"/></g><g id="elem_f2a"><rect fill="#FFAAAA" height="32.2581" style="stroke:#000000;stroke-width:0.5;" width="39" x="432" y="568.67"/><text fill="#000000" font-family="Courier" font-size="9" lengthAdjust="spacing" textLength="25" x="439" y="580.2911">false</text><line style="stroke:#000000;stroke-width:0.5;" x1="433" x2="470" y1="584.9281" y2="584.9281"/></g><g id="elem_f2b"><rect fill="#FFAAAA" height="32.2581" style="stroke:#000000;stroke-width:0.5;" width="39" x="506" y="568.67"/><text fill="#000000" font-family="Courier" font-size="9" lengthAdjust="spacing" textLength="25" x="513" y="580.2911">false</text><line style="stroke:#000000;stroke-width:0.5;" x1="507" x2="544" y1="584.9281" y2="584.9281"/></g><g id="elem_f3a"><rect fill="#FFAAAA" height="32.2581" style="stroke:#000000;stroke-width:0.5;" width="39" x="781" y="568.67"/><text fill="#000000" font-family="Courier" font-size="9" lengthAdjust="spacing" textLength="25" x="788" y="580.2911">false</text><line style="stroke:#000000;stroke-width:0.5;" x1="782" x2="819" y1="584.9281" y2="584.9281"/></g><g id="elem_f3b"><rect fill="#FFAAAA" height="32.2581" style="stroke:#000000;stroke-width:0.5;" width="39" x="855" y="568.67"/><text fill="#000000" font-family="Courier" font-size="9" lengthAdjust="spacing" textLength="25" x="862" y="580.2911">false</text><line style="stroke:#000000;stroke-width:0.5;" x1="856" x2="893" y1="584.9281" y2="584.9281"/></g><g id="elem_sol2"><rect fill="#CCFFCC" height="44.5162" style="stroke:#000000;stroke-width:0.5;" width="54" x="1081.5" y="562.54"/><text fill="#000000" font-family="Courier" font-size="9" lengthAdjust="spacing" textLength="40" x="1088.5" y="574.1611">SOLUCION</text><text fill="#000000" font-family="Courier" font-size="9" lengthAdjust="spacing" textLength="25" x="1096" y="586.4192">[2,5]</text><line style="stroke:#000000;stroke-width:0.5;" x1="1082.5" x2="1134.5" y1="591.0562" y2="591.0562"/></g><g id="elem_f2x"><rect fill="#FFAAAA" height="32.2581" style="stroke:#000000;stroke-width:0.5;" width="39" x="1171" y="568.67"/><text fill="#000000" font-family="Courier" font-size="9" lengthAdjust="spacing" textLength="25" x="1178" y="580.2911">false</text><line style="stroke:#000000;stroke-width:0.5;" x1="1172" x2="1209" y1="584.9281" y2="584.9281"/></g><!--link r to n1--><g id="link_r_n1"><path codeLine="61" d="M789.61,38.34 C756.28,57.39 702.5502,88.0845 668.0202,107.8045 " fill="none" id="r-to-n1" style="stroke:#181818;stroke-width:1.0;"/><polygon fill="#181818" points="662.81,110.78,672.609,109.7902,667.1518,108.3004,668.6416,102.8432,662.81,110.78" style="stroke:#181818;stroke-width:1.0;"/><text fill="#000000" font-family="Courier" font-size="8" lengthAdjust="spacing" textLength="25" x="731.37" y="78.8019">inc&#160;1</text></g><!--link r to n0--><g id="link_r_n0"><path codeLine="62" d="M839.32,37.92 C874.53,57.49 933.3755,90.1954 968.5355,109.7354 " fill="none" id="r-to-n0" style="stroke:#181818;stroke-width:1.0;"/><polygon fill="#181818" points="973.78,112.65,967.8563,104.7817,969.4096,110.2212,963.9701,111.7744,973.78,112.65" style="stroke:#181818;stroke-width:1.0;"/><text fill="#000000" font-family="Courier" font-size="8" lengthAdjust="spacing" textLength="25" x="913.02" y="78.8019">exc&#160;1</text></g><!--link n1 to n12--><g id="link_n1_n12"><path codeLine="65" d="M608.15,138.09 C554.79,157.04 442.714,196.832 385.554,217.132 " fill="none" id="n1-to-n12" style="stroke:#181818;stroke-width:1.0;"/><polygon fill="#181818" points="379.9,219.14,389.7197,219.8974,384.6117,217.4667,387.0424,212.3587,379.9,219.14" style="stroke:#181818;stroke-width:1.0;"/><text fill="#000000" font-family="Courier" font-size="8" lengthAdjust="spacing" textLength="25" x="501.14" y="183.0619">inc&#160;2</text></g><!--link n1 to n1x--><g id="link_n1_n1x"><path codeLine="66" d="M635.5,143.91 C635.5,163.24 635.5,190.06 635.5,209.3 " fill="none" id="n1-to-n1x" style="stroke:#181818;stroke-width:1.0;"/><polygon fill="#181818" points="635.5,215.3,639.5,206.3,635.5,210.3,631.5,206.3,635.5,215.3" style="stroke:#181818;stroke-width:1.0;"/><text fill="#000000" font-family="Courier" font-size="8" lengthAdjust="spacing" textLength="25" x="636.5" y="183.0619">exc&#160;2</text></g><!--link n0 to n02--><g id="link_n0_n02"><path codeLine="67" d="M998.5,143.91 C998.5,163.24 998.5,190.06 998.5,209.3 " fill="none" id="n0-to-n02" style="stroke:#181818;stroke-width:1.0;"/><polygon fill="#181818" points="998.5,215.3,1002.5,206.3,998.5,210.3,994.5,206.3,998.5,215.3" style="stroke:#181818;stroke-width:1.0;"/><text fill="#000000" font-family="Courier" font-size="8" lengthAdjust="spacing" textLength="25" x="999.5" y="183.0619">inc&#160;2</text></g><!--link n0 to n0x--><g id="link_n0_n0x"><path codeLine="68" d="M1023.23,137.82 C1074.29,157.3 1185.2141,199.6314 1236.2241,219.0914 " fill="none" id="n0-to-n0x" style="stroke:#181818;stroke-width:1.0;"/><polygon fill="#181818" points="1241.83,221.23,1234.8469,214.2848,1237.1584,219.4478,1231.9954,221.7593,1241.83,221.23" style="stroke:#181818;stroke-width:1.0;"/><text fill="#000000" font-family="Courier" font-size="8" lengthAdjust="spacing" textLength="25" x="1141.54" y="183.0619">exc&#160;2</text></g><!--link n12 to n123--><g id="link_n12_n123"><path codeLine="71" d="M322.44,248.17 C291.34,267.45 243.7098,296.959 212.6198,316.229 " fill="none" id="n12-to-n123" style="stroke:#181818;stroke-width:1.0;"/><polygon fill="#181818" points="207.52,319.39,217.2771,318.0485,211.7699,316.7559,213.0625,311.2487,207.52,319.39" style="stroke:#181818;stroke-width:1.0;"/><text fill="#000000" font-family="Courier" font-size="8" lengthAdjust="spacing" textLength="25" x="270.95" y="287.3219">inc&#160;3</text></g><!--link n12 to n12x--><g id="link_n12_n12x"><path codeLine="72" d="M347.5,248.17 C347.5,267.5 347.5,294.31 347.5,313.56 " fill="none" id="n12-to-n12x" style="stroke:#181818;stroke-width:1.0;"/><polygon fill="#181818" points="347.5,319.56,351.5,310.56,347.5,314.56,343.5,310.56,347.5,319.56" style="stroke:#181818;stroke-width:1.0;"/><text fill="#000000" font-family="Courier" font-size="8" lengthAdjust="spacing" textLength="25" x="348.5" y="287.3219">exc&#160;3</text></g><!--link n1x to n1x3--><g id="link_n1x_n1x3"><path codeLine="73" d="M622.16,247.93 C615.58,256.24 608.1,266.99 603.5,277.77 C597.79,291.15 595.6926,301.5878 594.3626,313.3778 " fill="none" id="n1x-to-n1x3" style="stroke:#181818;stroke-width:1.0;"/><polygon fill="#181818" points="593.69,319.34,598.6737,310.8451,594.2505,314.3715,590.7241,309.9483,593.69,319.34" style="stroke:#181818;stroke-width:1.0;"/><text fill="#000000" font-family="Courier" font-size="8" lengthAdjust="spacing" textLength="25" x="604.5" y="287.3219">inc&#160;3</text></g><!--link n1x to n1xx--><g id="link_n1x_n1xx"><path codeLine="74" d="M643.25,248.17 C652.89,267.5 666.5723,294.9407 676.1723,314.1907 " fill="none" id="n1x-to-n1xx" style="stroke:#181818;stroke-width:1.0;"/><polygon fill="#181818" points="678.85,319.56,678.413,309.7208,676.6186,315.0855,671.2539,313.2911,678.85,319.56" style="stroke:#181818;stroke-width:1.0;"/><text fill="#000000" font-family="Courier" font-size="8" lengthAdjust="spacing" textLength="25" x="663.53" y="287.3219">exc&#160;3</text></g><!--link n02 to n023--><g id="link_n02_n023"><path codeLine="75" d="M983.46,248.25 C976.23,256.48 967.98,267.06 962.5,277.77 C955.65,291.15 952.5886,301.9669 950.2086,313.8469 " fill="none" id="n02-to-n023" style="stroke:#181818;stroke-width:1.0;"/><polygon fill="#181818" points="949.03,319.73,954.72,311.6911,950.0122,314.8274,946.8758,310.1196,949.03,319.73" style="stroke:#181818;stroke-width:1.0;"/><text fill="#000000" font-family="Courier" font-size="8" lengthAdjust="spacing" textLength="25" x="963.5" y="287.3219">inc&#160;3</text></g><!--link n02 to n02x--><g id="link_n02_n02x"><path codeLine="76" d="M1006.4,248.17 C1016.23,267.5 1030.1901,294.9619 1039.9801,314.2119 " fill="none" id="n02-to-n02x" style="stroke:#181818;stroke-width:1.0;"/><polygon fill="#181818" points="1042.7,319.56,1042.1856,309.7246,1040.4334,315.1032,1035.0548,313.3511,1042.7,319.56" style="stroke:#181818;stroke-width:1.0;"/><text fill="#000000" font-family="Courier" font-size="8" lengthAdjust="spacing" textLength="25" x="1027.06" y="287.3219">exc&#160;3</text></g><!--link n0x to n0x3--><g id="link_n0x_n0x3"><path codeLine="77" d="M1266.5,248.17 C1266.5,267.5 1266.5,294.31 1266.5,313.56 " fill="none" id="n0x-to-n0x3" style="stroke:#181818;stroke-width:1.0;"/><polygon fill="#181818" points="1266.5,319.56,1270.5,310.56,1266.5,314.56,1262.5,310.56,1266.5,319.56" style="stroke:#181818;stroke-width:1.0;"/><text fill="#000000" font-family="Courier" font-size="8" lengthAdjust="spacing" textLength="25" x="1267.5" y="287.3219">inc&#160;3</text></g><!--link n0x to n0xx--><g id="link_n0x_n0xx"><path codeLine="78" d="M1288.37,248.17 C1315.59,267.5 1356.9085,296.8354 1384.0085,316.0854 " fill="none" id="n0x-to-n0xx" style="stroke:#181818;stroke-width:1.0;"/><polygon fill="#181818" points="1388.9,319.56,1383.8791,311.0871,1384.8237,316.6645,1379.2463,317.6091,1388.9,319.56" style="stroke:#181818;stroke-width:1.0;"/><text fill="#000000" font-family="Courier" font-size="8" lengthAdjust="spacing" textLength="25" x="1343.82" y="287.3219">exc&#160;3</text></g><!--link n123 to poda1--><g id="link_n123_poda1"><path codeLine="81" d="M166.94,352.51 C144.14,375.39 106.1061,413.5409 83.2961,436.4209 " fill="none" id="n123-to-poda1" style="stroke:#181818;stroke-width:1.0;"/><polygon fill="#181818" points="79.06,440.67,88.247,437.1204,82.5901,437.1291,82.5814,431.4722,79.06,440.67" style="stroke:#181818;stroke-width:1.0;"/><text fill="#000000" font-family="Courier" font-size="8" lengthAdjust="spacing" textLength="25" x="138.16" y="397.0819">inc&#160;4</text></g><!--link n123 to n123x--><g id="link_n123_n123x"><path codeLine="82" d="M182.5,352.51 C182.5,375.39 182.5,411.79 182.5,434.67 " fill="none" id="n123-to-n123x" style="stroke:#181818;stroke-width:1.0;"/><polygon fill="#181818" points="182.5,440.67,186.5,431.67,182.5,435.67,178.5,431.67,182.5,440.67" style="stroke:#181818;stroke-width:1.0;"/><text fill="#000000" font-family="Courier" font-size="8" lengthAdjust="spacing" textLength="25" x="183.5" y="397.0819">exc&#160;4</text></g><!--link n12x to sol1--><g id="link_n12x_sol1"><path codeLine="83" d="M334.94,352.16 C328.34,360.63 320.41,371.54 314.5,382.03 C304.96,398.94 298.7235,413.7534 293.1135,428.9034 " fill="none" id="n12x-to-sol1" style="stroke:#181818;stroke-width:1.0;"/><polygon fill="#181818" points="291.03,434.53,297.9064,427.4791,292.7663,429.8411,290.4042,424.701,291.03,434.53" style="stroke:#181818;stroke-width:1.0;"/><text fill="#000000" font-family="Courier" font-size="8" lengthAdjust="spacing" textLength="25" x="320.5" y="391.5819">inc&#160;4</text><text fill="#000000" font-family="Courier" font-size="8" lengthAdjust="spacing" textLength="35" x="315.5" y="402.4777">r=4-4=0</text></g><!--link n12x to n12xx--><g id="link_n12x_n12xx"><path codeLine="84" d="M351.68,352.51 C357.82,375.39 367.6249,411.995 373.7649,434.875 " fill="none" id="n12x-to-n12xx" style="stroke:#181818;stroke-width:1.0;"/><polygon fill="#181818" points="375.32,440.67,376.8506,430.9408,374.0241,435.8409,369.124,433.0143,375.32,440.67" style="stroke:#181818;stroke-width:1.0;"/><text fill="#000000" font-family="Courier" font-size="8" lengthAdjust="spacing" textLength="25" x="366.42" y="397.0819">exc&#160;4</text></g><!--link n1x3 to poda2--><g id="link_n1x3_poda2"><path codeLine="85" d="M578.9,352.51 C558.97,375.39 525.9709,413.2657 506.0409,436.1457 " fill="none" id="n1x3-to-poda2" style="stroke:#181818;stroke-width:1.0;"/><polygon fill="#181818" points="502.1,440.67,511.0276,436.5109,505.3841,436.8998,504.9952,431.2563,502.1,440.67" style="stroke:#181818;stroke-width:1.0;"/><text fill="#000000" font-family="Courier" font-size="8" lengthAdjust="spacing" textLength="25" x="553.87" y="397.0819">inc&#160;4</text></g><!--link n1x3 to n1x3x--><g id="link_n1x3_n1x3x"><path codeLine="86" d="M593.15,352.51 C594.11,375.39 595.6385,411.7953 596.5985,434.6753 " fill="none" id="n1x3-to-n1x3x" style="stroke:#181818;stroke-width:1.0;"/><polygon fill="#181818" points="596.85,440.67,600.4692,431.5102,596.6404,435.6744,592.4762,431.8456,596.85,440.67" style="stroke:#181818;stroke-width:1.0;"/><text fill="#000000" font-family="Courier" font-size="8" lengthAdjust="spacing" textLength="25" x="596.3" y="397.0819">exc&#160;4</text></g><!--link n1xx to n1xxx--><g id="link_n1xx_n1xxx"><path codeLine="87" d="M683.09,352.27 C681.33,360.95 679.38,372.04 678.5,382.03 C676.71,402.34 677.7042,419.8877 679.1542,434.9277 " fill="none" id="n1xx-to-n1xxx" style="stroke:#181818;stroke-width:1.0;"/><polygon fill="#181818" points="679.73,440.9,682.8479,431.5577,679.2502,435.9231,674.8848,432.3254,679.73,440.9" style="stroke:#181818;stroke-width:1.0;"/><text fill="#000000" font-family="Courier" font-size="8" lengthAdjust="spacing" textLength="25" x="679.5" y="397.0819">inc&#160;4</text></g><!--link n1xx to n1x4--><g id="link_n1xx_n1x4"><path codeLine="88" d="M694.61,352.51 C706.49,375.39 725.7451,412.465 737.6251,435.345 " fill="none" id="n1xx-to-n1x4" style="stroke:#181818;stroke-width:1.0;"/><polygon fill="#181818" points="740.39,440.67,739.7926,430.8393,738.0859,436.2325,732.6927,434.5258,740.39,440.67" style="stroke:#181818;stroke-width:1.0;"/><text fill="#000000" font-family="Courier" font-size="8" lengthAdjust="spacing" textLength="25" x="722.21" y="397.0819">exc&#160;4</text></g><!--link n023 to poda3--><g id="link_n023_poda3"><path codeLine="89" d="M932.25,352.51 C911.36,375.39 876.6966,413.36 855.7966,436.24 " fill="none" id="n023-to-poda3" style="stroke:#181818;stroke-width:1.0;"/><polygon fill="#181818" points="851.75,440.67,860.7733,436.7228,855.1222,436.9783,854.8666,431.3273,851.75,440.67" style="stroke:#181818;stroke-width:1.0;"/><text fill="#000000" font-family="Courier" font-size="8" lengthAdjust="spacing" textLength="25" x="905.97" y="397.0819">inc&#160;4</text></g><!--link n023 to n023x--><g id="link_n023_n023x"><path codeLine="90" d="M946.5,352.51 C946.5,375.39 946.5,411.79 946.5,434.67 " fill="none" id="n023-to-n023x" style="stroke:#181818;stroke-width:1.0;"/><polygon fill="#181818" points="946.5,440.67,950.5,431.67,946.5,435.67,942.5,431.67,946.5,440.67" style="stroke:#181818;stroke-width:1.0;"/><text fill="#000000" font-family="Courier" font-size="8" lengthAdjust="spacing" textLength="25" x="947.5" y="397.0819">exc&#160;4</text></g><!--link n02x to n02x4--><g id="link_n02x_n02x4"><path codeLine="91" d="M1050.5,352.51 C1050.5,375.39 1050.5,411.79 1050.5,434.67 " fill="none" id="n02x-to-n02x4" style="stroke:#181818;stroke-width:1.0;"/><polygon fill="#181818" points="1050.5,440.67,1054.5,431.67,1050.5,435.67,1046.5,431.67,1050.5,440.67" style="stroke:#181818;stroke-width:1.0;"/><text fill="#000000" font-family="Courier" font-size="8" lengthAdjust="spacing" textLength="25" x="1051.5" y="397.0819">inc&#160;4</text></g><!--link n02x to n02xx--><g id="link_n02x_n02xx"><path codeLine="92" d="M1063.44,352.51 C1082.42,375.39 1113.7504,413.1711 1132.7204,436.0511 " fill="none" id="n02x-to-n02xx" style="stroke:#181818;stroke-width:1.0;"/><polygon fill="#181818" points="1136.55,440.67,1133.8849,431.1886,1133.3587,436.8209,1127.7264,436.2947,1136.55,440.67" style="stroke:#181818;stroke-width:1.0;"/><text fill="#000000" font-family="Courier" font-size="8" lengthAdjust="spacing" textLength="25" x="1106.93" y="397.0819">exc&#160;4</text></g><!--link n0x3 to sol3--><g id="link_n0x3_sol3"><path codeLine="93" d="M1260.69,352.16 C1257.58,360.82 1253.91,371.91 1251.5,382.03 C1247.33,399.52 1245.1629,413.7713 1243.4029,428.6913 " fill="none" id="n0x3-to-sol3" style="stroke:#181818;stroke-width:1.0;"/><polygon fill="#181818" points="1242.7,434.65,1247.7268,426.1806,1243.2858,429.6844,1239.7819,425.2434,1242.7,434.65" style="stroke:#181818;stroke-width:1.0;"/><text fill="#000000" font-family="Courier" font-size="8" lengthAdjust="spacing" textLength="25" x="1257.5" y="391.5819">inc&#160;4</text><text fill="#000000" font-family="Courier" font-size="8" lengthAdjust="spacing" textLength="35" x="1252.5" y="402.4777">r=4-4=0</text></g><!--link n0x3 to n0x3x--><g id="link_n0x3_n0x3x"><path codeLine="94" d="M1275.55,352.27 C1280.62,360.96 1287.01,372.05 1292.5,382.03 C1303.59,402.18 1313.1046,420.4149 1320.8646,435.4949 " fill="none" id="n0x3-to-n0x3x" style="stroke:#181818;stroke-width:1.0;"/><polygon fill="#181818" points="1323.61,440.83,1323.0487,430.9972,1321.3222,436.3841,1315.9352,434.6576,1323.61,440.83" style="stroke:#181818;stroke-width:1.0;"/><text fill="#000000" font-family="Courier" font-size="8" lengthAdjust="spacing" textLength="25" x="1305.55" y="397.0819">exc&#160;4</text></g><!--link n0xx to n0xx4--><g id="link_n0xx_n0xx4"><path codeLine="95" d="M1409.22,352.34 C1408.56,361.05 1407.83,372.14 1407.5,382.03 C1406.82,402.4 1407.6818,419.926 1408.7818,434.946 " fill="none" id="n0xx-to-n0xx4" style="stroke:#181818;stroke-width:1.0;"/><polygon fill="#181818" points="1409.22,440.93,1412.552,431.6619,1408.8548,435.9434,1404.5733,432.2462,1409.22,440.93" style="stroke:#181818;stroke-width:1.0;"/><text fill="#000000" font-family="Courier" font-size="8" lengthAdjust="spacing" textLength="25" x="1408.5" y="397.0819">inc&#160;4</text></g><!--link n0xx to n0xxx--><g id="link_n0xx_n0xxx"><path codeLine="96" d="M1420.37,352.19 C1425.86,360.85 1432.73,371.94 1438.5,382.03 C1449.92,402 1459.3941,420.2548 1467.0441,435.3948 " fill="none" id="n0xx-to-n0xxx" style="stroke:#181818;stroke-width:1.0;"/><polygon fill="#181818" points="1469.75,440.75,1469.2613,430.9133,1467.4951,436.2873,1462.121,434.5211,1469.75,440.75" style="stroke:#181818;stroke-width:1.0;"/><text fill="#000000" font-family="Courier" font-size="8" lengthAdjust="spacing" textLength="25" x="1451.76" y="397.0819">exc&#160;4</text></g><!--link poda1 to f1a--><g id="link_poda1_f1a"><path codeLine="99" d="M50.46,473.8 C43.18,483.44 34.74,496.45 30.5,509.54 C24.18,529.08 23.8181,547.0003 24.7181,562.3203 " fill="none" id="poda1-to-f1a" style="stroke:#181818;stroke-width:1.0;"/><polygon fill="#181818" points="25.07,568.31,28.5353,559.0909,24.7768,563.3186,20.5491,559.5601,25.07,568.31" style="stroke:#181818;stroke-width:1.0;"/><text fill="#000000" font-family="Courier" font-size="8" lengthAdjust="spacing" textLength="25" x="31.5" y="524.5919">inc&#160;5</text></g><!--link poda1 to f1b--><g id="link_poda1_f1b"><path codeLine="100" d="M68.04,473.68 C75.14,497.77 87.1024,538.3652 94.2324,562.5352 " fill="none" id="poda1-to-f1b" style="stroke:#181818;stroke-width:1.0;"/><polygon fill="#181818" points="95.93,568.29,97.2201,558.526,94.5153,563.4943,89.547,560.7895,95.93,568.29" style="stroke:#181818;stroke-width:1.0;"/><text fill="#000000" font-family="Courier" font-size="8" lengthAdjust="spacing" textLength="25" x="86.31" y="524.5919">exc&#160;5</text></g><!--link poda2 to f2a--><g id="link_poda2_f2a"><path codeLine="101" d="M475.46,473.8 C468.18,483.44 459.74,496.45 455.5,509.54 C449.18,529.08 448.8181,547.0003 449.7181,562.3203 " fill="none" id="poda2-to-f2a" style="stroke:#181818;stroke-width:1.0;"/><polygon fill="#181818" points="450.07,568.31,453.5353,559.0909,449.7768,563.3186,445.5491,559.5601,450.07,568.31" style="stroke:#181818;stroke-width:1.0;"/><text fill="#000000" font-family="Courier" font-size="8" lengthAdjust="spacing" textLength="25" x="456.5" y="524.5919">inc&#160;5</text></g><!--link poda2 to f2b--><g id="link_poda2_f2b"><path codeLine="102" d="M493.04,473.68 C500.14,497.77 512.1024,538.3652 519.2324,562.5352 " fill="none" id="poda2-to-f2b" style="stroke:#181818;stroke-width:1.0;"/><polygon fill="#181818" points="520.93,568.29,522.2201,558.526,519.5153,563.4943,514.547,560.7895,520.93,568.29" style="stroke:#181818;stroke-width:1.0;"/><text fill="#000000" font-family="Courier" font-size="8" lengthAdjust="spacing" textLength="25" x="511.31" y="524.5919">exc&#160;5</text></g><!--link poda3 to f3a--><g id="link_poda3_f3a"><path codeLine="103" d="M824.46,473.8 C817.18,483.44 808.74,496.45 804.5,509.54 C798.18,529.08 797.8181,547.0003 798.7181,562.3203 " fill="none" id="poda3-to-f3a" style="stroke:#181818;stroke-width:1.0;"/><polygon fill="#181818" points="799.07,568.31,802.5353,559.0909,798.7768,563.3186,794.5491,559.5601,799.07,568.31" style="stroke:#181818;stroke-width:1.0;"/><text fill="#000000" font-family="Courier" font-size="8" lengthAdjust="spacing" textLength="25" x="805.5" y="524.5919">inc&#160;5</text></g><!--link poda3 to f3b--><g id="link_poda3_f3b"><path codeLine="104" d="M842.04,473.68 C849.14,497.77 861.1024,538.3652 868.2324,562.5352 " fill="none" id="poda3-to-f3b" style="stroke:#181818;stroke-width:1.0;"/><polygon fill="#181818" points="869.93,568.29,871.2201,558.526,868.5153,563.4943,863.547,560.7895,869.93,568.29" style="stroke:#181818;stroke-width:1.0;"/><text fill="#000000" font-family="Courier" font-size="8" lengthAdjust="spacing" textLength="25" x="860.31" y="524.5919">exc&#160;5</text></g><!--link n02xx to sol2--><g id="link_n02xx_sol2"><path codeLine="105" d="M1133.57,473.79 C1125.01,483.23 1115.26,496.04 1110.5,509.54 C1104.5,526.57 1104.0011,541.2084 1105.1911,556.3884 " fill="none" id="n02xx-to-sol2" style="stroke:#181818;stroke-width:1.0;"/><polygon fill="#181818" points="1105.66,562.37,1108.9444,553.0849,1105.2692,557.3853,1100.9689,553.7101,1105.66,562.37" style="stroke:#181818;stroke-width:1.0;"/><text fill="#000000" font-family="Courier" font-size="8" lengthAdjust="spacing" textLength="25" x="1116.5" y="519.0919">inc&#160;5</text><text fill="#000000" font-family="Courier" font-size="8" lengthAdjust="spacing" textLength="35" x="1111.5" y="529.9877">r=5-5=0</text></g><!--link n02xx to f2x--><g id="link_n02xx_f2x"><path codeLine="106" d="M1154.53,473.68 C1162.4,497.77 1175.6781,538.4162 1183.5681,562.5862 " fill="none" id="n02xx-to-f2x" style="stroke:#181818;stroke-width:1.0;"/><polygon fill="#181818" points="1185.43,568.29,1186.4396,558.493,1183.8784,563.5368,1178.8346,560.9756,1185.43,568.29" style="stroke:#181818;stroke-width:1.0;"/><text fill="#000000" font-family="Courier" font-size="8" lengthAdjust="spacing" textLength="25" x="1174.67" y="524.5919">exc&#160;5</text></g><!--SRC=[VPLDZzCm48Rl-HLMEN1fgyHsW5rfaQ0I4X9g3ojEB8SqTI5iDbavNTRYr-EFP6RSVEHKlNxUcV7OddQFLVDSwEA97Ov_L7dvqZQNVV6as6hNlkXAwLNIJI3trJ_5RiZI9wtRrqKp4DxxOHJsSwjFIk_QkjNiM1VbuvYmuY_TlZIdGBt-hYugITwoVVLNrInDMe-nbRvxlsO_VgvOqJ6DG4Q0TnR80j5aayOcHISdX7JEDH-yV2we8GkvNHWSAPz9Pp2V84WMygq5P1GBrT2img-1puZPKgcBkrh1bKRPudsOgph04sMAjaZsA0cp4SCcrpAmp-sfoDYRyxcqNzoDKJkCuvJzWBi_VFk- -thOFpIUxMDsRMr3bgKB6fT-rSDnG5jYE8UeG3vHe0ZHIDV7qRRRBNJUhYerjof7YxQG_e1e8MAY4EuAYGvoQbjPe2GUgfoWSayXOwOwBKYVnLoVoHrPw8kzA7A-Bodj6jod7C1pKNVAe-UiS4aA-qsk7fTM-QANBth5ebUClQIFV9r37_ceZxG40s5m2BBDHpleDDkSx8ycOxUiQagYf5PHnYau5vs79nRkJRntKStqFgkbGoZ2WOOSJayNNoGkxf10zCvO7RnEDP2OigWIDkLG4669Iba3XL8MLMHn6hlwPUBBzbWOJi5DzJ2CWj_hVLW_U0R-eR5FOIFlKWA4eOD6Gn9naiW8x4h4axuOogCk6V8ftOX07lGmBGXli9UIyaId_52ddmGJ6mSWp05Y90T14r4TUVmlSIUK9-5SFEXUVh1VoSVU7UJ-ZhYtJccGOxelshrkIeECT6Z8q8FX27FNWdoJ-nO0uDun6Fy3]--></g></svg>