<?xml version="1.0" encoding="us-ascii" standalone="no"?><svg xmlns="http://www.w3.org/2000/svg" xmlns:xlink="http://www.w3.org/1999/xlink" contentStyleType="text/css" height="613px" preserveAspectRatio="none" style="width:1339px;height:613px;background:#FFFFFF;" version="1.1" viewBox="0 0 1339 613" width="1339px" zoomAndPan="magnify"><defs/><g><g id="elem_r"><rect fill="#FFFFFF" height="32.2581" style="stroke:#000000;stroke-width:0.5;" width="49" x="648.5" y="7"/><text fill="#000000" font-family="Courier" font-size="9" lengthAdjust="spacing" textLength="35" x="655.5" y="18.6211">r=7,&#160;[]</text><line style="stroke:#000000;stroke-width:0.5;" x1="649.5" x2="696.5" y1="23.2581" y2="23.2581"/></g><g id="elem_n1"><rect fill="#FFFFFF" height="32.2581" style="stroke:#000000;stroke-width:0.5;" width="54" x="490" y="111.25"/><text fill="#000000" font-family="Courier" font-size="9" lengthAdjust="spacing" textLength="40" x="497" y="122.8711">r=6,&#160;[1]</text><line style="stroke:#000000;stroke-width:0.5;" x1="491" x2="543" y1="127.5081" y2="127.5081"/></g><g id="elem_n0"><rect fill="#FFFFFF" height="32.2581" style="stroke:#000000;stroke-width:0.5;" width="49" x="815.5" y="111.25"/><text fill="#000000" font-family="Courier" font-size="9" lengthAdjust="spacing" textLength="35" x="822.5" y="122.8711">r=7,&#160;[]</text><line style="stroke:#000000;stroke-width:0.5;" x1="816.5" x2="863.5" y1="127.5081" y2="127.5081"/></g><g id="elem_n12"><rect fill="#FFFFFF" height="32.2581" style="stroke:#000000;stroke-width:0.5;" width="64" x="248" y="215.51"/><text fill="#000000" font-family="Courier" font-size="9" lengthAdjust="spacing" textLength="50" x="255" y="227.1311">r=4,&#160;[1,2]</text><line style="stroke:#000000;stroke-width:0.5;" x1="249" x2="311" y1="231.7681" y2="231.7681"/></g><g id="elem_n1x"><rect fill="#FFFFFF" height="32.2581" style="stroke:#000000;stroke-width:0.5;" width="54" x="490" y="215.51"/><text fill="#000000" font-family="Courier" font-size="9" lengthAdjust="spacing" textLength="40" x="497" y="227.1311">r=6,&#160;[1]</text><line style="stroke:#000000;stroke-width:0.5;" x1="491" x2="543" y1="231.7681" y2="231.7681"/></g><g id="elem_n02"><rect fill="#FFFFFF" height="32.2581" style="stroke:#000000;stroke-width:0.5;" width="54" x="813" y="215.51"/><text fill="#000000" font-family="Courier" font-size="9" lengthAdjust="spacing" textLength="40" x="820" y="227.1311">r=5,&#160;[2]</text><line style="stroke:#000000;stroke-width:0.5;" x1="814" x2="866" y1="231.7681" y2="231.7681"/></g><g id="elem_n0x"><rect fill="#FFFFFF" height="32.2581" style="stroke:#000000;stroke-width:0.5;" width="49" x="1083.5" y="215.51"/><text fill="#000000" font-family="Courier" font-size="9" lengthAdjust="spacing" textLength="35" x="1090.5" y="227.1311">r=7,&#160;[]</text><line style="stroke:#000000;stroke-width:0.5;" x1="1084.5" x2="1131.5" y1="231.7681" y2="231.7681"/></g><g id="elem_n123"><rect fill="#FFFFFF" height="32.2581" style="stroke:#000000;stroke-width:0.5;" width="74" x="78" y="319.77"/><text fill="#000000" font-family="Courier" font-size="9" lengthAdjust="spacing" textLength="60" x="85" y="331.3911">r=1,&#160;[1,2,3]</text><line style="stroke:#000000;stroke-width:0.5;" x1="79" x2="151" y1="336.0281" y2="336.0281"/></g><g id="elem_n12x"><rect fill="#FFFFFF" height="32.2581" style="stroke:#000000;stroke-width:0.5;" width="64" x="248" y="319.77"/><text fill="#000000" font-family="Courier" font-size="9" lengthAdjust="spacing" textLength="50" x="255" y="331.3911">r=4,&#160;[1,2]</text><line style="stroke:#000000;stroke-width:0.5;" x1="249" x2="311" y1="336.0281" y2="336.0281"/></g><g id="elem_n1x3"><rect fill="#FFFFFF" height="32.2581" style="stroke:#000000;stroke-width:0.5;" width="64" x="447" y="319.77"/><text fill="#000000" font-family="Courier" font-size="9" lengthAdjust="spacing" textLength="50" x="454" y="331.3911">r=3,&#160;[1,3]</text><line style="stroke:#000000;stroke-width:0.5;" x1="448" x2="510" y1="336.0281" y2="336.0281"/></g><g id="elem_n1xx"><rect fill="#FFFFFF" height="32.2581" style="stroke:#000000;stroke-width:0.5;" width="54" x="546" y="319.77"/><text fill="#000000" font-family="Courier" font-size="9" lengthAdjust="spacing" textLength="40" x="553" y="331.3911">r=6,&#160;[1]</text><line style="stroke:#000000;stroke-width:0.5;" x1="547" x2="599" y1="336.0281" y2="336.0281"/></g><g id="elem_n023"><rect fill="#FFFFFF" height="32.2581" style="stroke:#000000;stroke-width:0.5;" width="64" x="756" y="319.77"/><text fill="#000000" font-family="Courier" font-size="9" lengthAdjust="spacing" textLength="50" x="763" y="331.3911">r=2,&#160;[2,3]</text><line style="stroke:#000000;stroke-width:0.5;" x1="757" x2="819" y1="336.0281" y2="336.0281"/></g><g id="elem_n02x"><rect fill="#FFFFFF" height="32.2581" style="stroke:#000000;stroke-width:0.5;" width="54" x="865" y="319.77"/><text fill="#000000" font-family="Courier" font-size="9" lengthAdjust="spacing" textLength="40" x="872" y="331.3911">r=5,&#160;[2]</text><line style="stroke:#000000;stroke-width:0.5;" x1="866" x2="918" y1="336.0281" y2="336.0281"/></g><g id="elem_n0x3"><rect fill="#FFFFFF" height="32.2581" style="stroke:#000000;stroke-width:0.5;" width="54" x="1081" y="319.77"/><text fill="#000000" font-family="Courier" font-size="9" lengthAdjust="spacing" textLength="40" x="1088" y="331.3911">r=4,&#160;[3]</text><line style="stroke:#000000;stroke-width:0.5;" x1="1082" x2="1134" y1="336.0281" y2="336.0281"/></g><g id="elem_n0xx"><rect fill="#FFFFFF" height="32.2581" style="stroke:#000000;stroke-width:0.5;" width="49" x="1227.5" y="319.77"/><text fill="#000000" font-family="Courier" font-size="9" lengthAdjust="spacing" textLength="35" x="1234.5" y="331.3911">r=7,&#160;[]</text><line style="stroke:#000000;stroke-width:0.5;" x1="1228.5" x2="1275.5" y1="336.0281" y2="336.0281"/></g><g id="elem_poda1"><rect fill="#FFAA44" height="44.5162" style="stroke:#000000;stroke-width:0.5;" width="34" x="7" y="435.03"/><text fill="#000000" font-family="Courier" font-size="9" lengthAdjust="spacing" textLength="20" x="14" y="446.6511">PODA</text><text fill="#000000" font-family="Courier" font-size="9" lengthAdjust="spacing" textLength="20" x="14" y="458.9092">r=-3</text><line style="stroke:#000000;stroke-width:0.5;" x1="8" x2="40" y1="463.5462" y2="463.5462"/></g><g id="elem_n123x"><rect fill="#FFEEEE" height="32.2581" style="stroke:#000000;stroke-width:0.5;" width="79" x="75.5" y="441.16"/><text fill="#000000" font-family="Courier" font-size="9" lengthAdjust="spacing" textLength="65" x="82.5" y="452.7811">r=1,&#160;&#160;[1,2,3]</text><line style="stroke:#000000;stroke-width:0.5;" x1="76.5" x2="153.5" y1="457.4181" y2="457.4181"/></g><g id="elem_sol1"><rect fill="#CCFFCC" height="44.5162" style="stroke:#000000;stroke-width:0.5;" width="54" x="189" y="435.03"/><text fill="#000000" font-family="Courier" font-size="9" lengthAdjust="spacing" textLength="40" x="196" y="446.6511">SOLUCION</text><text fill="#000000" font-family="Courier" font-size="9" lengthAdjust="spacing" textLength="35" x="198.5" y="458.9092">[1,2,4]</text><line style="stroke:#000000;stroke-width:0.5;" x1="190" x2="242" y1="463.5462" y2="463.5462"/></g><g id="elem_n12xx"><rect fill="#FFEEEE" height="32.2581" style="stroke:#000000;stroke-width:0.5;" width="69" x="277.5" y="441.16"/><text fill="#000000" font-family="Courier" font-size="9" lengthAdjust="spacing" textLength="55" x="284.5" y="452.7811">r=4,&#160;&#160;[1,2]</text><line style="stroke:#000000;stroke-width:0.5;" x1="278.5" x2="345.5" y1="457.4181" y2="457.4181"/></g><g id="elem_poda2"><rect fill="#FFAA44" height="44.5162" style="stroke:#000000;stroke-width:0.5;" width="34" x="381" y="435.03"/><text fill="#000000" font-family="Courier" font-size="9" lengthAdjust="spacing" textLength="20" x="388" y="446.6511">PODA</text><text fill="#000000" font-family="Courier" font-size="9" lengthAdjust="spacing" textLength="20" x="388" y="458.9092">r=-1</text><line style="stroke:#000000;stroke-width:0.5;" x1="382" x2="414" y1="463.5462" y2="463.5462"/></g><g id="elem_n1x3x"><rect fill="#FFEEEE" height="32.2581" style="stroke:#000000;stroke-width:0.5;" width="69" x="449.5" y="441.16"/><text fill="#000000" font-family="Courier" font-size="9" lengthAdjust="spacing" textLength="55" x="456.5" y="452.7811">r=3,&#160;&#160;[1,3]</text><line style="stroke:#000000;stroke-width:0.5;" x1="450.5" x2="517.5" y1="457.4181" y2="457.4181"/></g><g id="elem_n1xxx"><rect fill="#EEEEEE" height="32.2581" style="stroke:#000000;stroke-width:0.5;" width="29" x="553.5" y="441.16"/><text fill="#000000" font-family="Courier" font-size="9" lengthAdjust="spacing" textLength="15" x="560.5" y="452.7811">...</text><line style="stroke:#000000;stroke-width:0.5;" x1="554.5" x2="581.5" y1="457.4181" y2="457.4181"/></g><g id="elem_n1x4"><rect fill="#EEEEEE" height="32.2581" style="stroke:#000000;stroke-width:0.5;" width="29" x="620.5" y="441.16"/><text fill="#000000" font-family="Courier" font-size="9" lengthAdjust="spacing" textLength="15" x="627.5" y="452.7811">...</text><line style="stroke:#000000;stroke-width:0.5;" x1="621.5" x2="648.5" y1="457.4181" y2="457.4181"/></g><g id="elem_poda3"><rect fill="#FFAA44" height="44.5162" style="stroke:#000000;stroke-width:0.5;" width="34" x="685" y="435.03"/><text fill="#000000" font-family="Courier" font-size="9" lengthAdjust="spacing" textLength="20" x="692" y="446.6511">PODA</text><text fill="#000000" font-family="Courier" font-size="9" lengthAdjust="spacing" textLength="20" x="692" y="458.9092">r=-2</text><line style="stroke:#000000;stroke-width:0.5;" x1="686" x2="718" y1="463.5462" y2="463.5462"/></g><g id="elem_n023x"><rect fill="#FFEEEE" height="32.2581" style="stroke:#000000;stroke-width:0.5;" width="69" x="753.5" y="441.16"/><text fill="#000000" font-family="Courier" font-size="9" lengthAdjust="spacing" textLength="55" x="760.5" y="452.7811">r=2,&#160;&#160;[2,3]</text><line style="stroke:#000000;stroke-width:0.5;" x1="754.5" x2="821.5" y1="457.4181" y2="457.4181"/></g><g id="elem_n02x4"><rect fill="#FFEEEE" height="32.2581" style="stroke:#000000;stroke-width:0.5;" width="69" x="857.5" y="441.16"/><text fill="#000000" font-family="Courier" font-size="9" lengthAdjust="spacing" textLength="55" x="864.5" y="452.7811">r=1,&#160;&#160;[2,4]</text><line style="stroke:#000000;stroke-width:0.5;" x1="858.5" x2="925.5" y1="457.4181" y2="457.4181"/></g><g id="elem_n02xx"><rect fill="#FFFFFF" height="32.2581" style="stroke:#000000;stroke-width:0.5;" width="59" x="961.5" y="441.16"/><text fill="#000000" font-family="Courier" font-size="9" lengthAdjust="spacing" textLength="45" x="968.5" y="452.7811">r=5,&#160;&#160;[2]</text><line style="stroke:#000000;stroke-width:0.5;" x1="962.5" x2="1019.5" y1="457.4181" y2="457.4181"/></g><g id="elem_sol3"><rect fill="#CCFFCC" height="44.5162" style="stroke:#000000;stroke-width:0.5;" width="54" x="1055" y="435.03"/><text fill="#000000" font-family="Courier" font-size="9" lengthAdjust="spacing" textLength="40" x="1062" y="446.6511">SOLUCION</text><text fill="#000000" font-family="Courier" font-size="9" lengthAdjust="spacing" textLength="25" x="1069.5" y="458.9092">[3,4]</text><line style="stroke:#000000;stroke-width:0.5;" x1="1056" x2="1108" y1="463.5462" y2="463.5462"/></g><g id="elem_n0x3x"><rect fill="#FFEEEE" height="32.2581" style="stroke:#000000;stroke-width:0.5;" width="59" x="1143.5" y="441.16"/><text fill="#000000" font-family="Courier" font-size="9" lengthAdjust="spacing" textLength="45" x="1150.5" y="452.7811">r=4,&#160;&#160;[3]</text><line style="stroke:#000000;stroke-width:0.5;" x1="1144.5" x2="1201.5" y1="457.4181" y2="457.4181"/></g><g id="elem_n0xx4"><rect fill="#EEEEEE" height="32.2581" style="stroke:#000000;stroke-width:0.5;" width="29" x="1237.5" y="441.16"/><text fill="#000000" font-family="Courier" font-size="9" lengthAdjust="spacing" textLength="15" x="1244.5" y="452.7811">...</text><line style="stroke:#000000;stroke-width:0.5;" x1="1238.5" x2="1265.5" y1="457.4181" y2="457.4181"/></g><g id="elem_n0xxx"><rect fill="#EEEEEE" height="32.2581" style="stroke:#000000;stroke-width:0.5;" width="29" x="1304.5" y="441.16"/><text fill="#000000" font-family="Courier" font-size="9" lengthAdjust="spacing" textLength="15" x="1311.5" y="452.7811">...</text><line style="stroke:#000000;stroke-width:0.5;" x1="1305.5" x2="1332.5" y1="457.4181" y2="457.4181"/></g><g id="elem_sol2"><rect fill="#CCFFCC" height="44.5162" style="stroke:#000000;stroke-width:0.5;" width="54" x="923" y="562.54"/><text fill="#000000" font-family="Courier" font-size="9" lengthAdjust="spacing" textLength="40" x="930" y="574.1611">SOLUCION</text><text fill="#000000" font-family="Courier" font-size="9" lengthAdjust="spacing" textLength="25" x="937.5" y="586.4192">[2,5]</text><line style="stroke:#000000;stroke-width:0.5;" x1="924" x2="976" y1="591.0562" y2="591.0562"/></g><g id="elem_f2x"><rect fill="#FFAAAA" height="32.2581" style="stroke:#000000;stroke-width:0.5;" width="39" x="1012.5" y="568.67"/><text fill="#000000" font-family="Courier" font-size="9" lengthAdjust="spacing" textLength="25" x="1019.5" y="580.2911">false</text><line style="stroke:#000000;stroke-width:0.5;" x1="1013.5" x2="1050.5" y1="584.9281" y2="584.9281"/></g><!--link r to n1--><g id="link_r_n1"><path codeLine="55" d="M649.31,39.66 C619.9,58.93 575.0684,88.3213 545.6784,107.5813 " fill="none" id="r-to-n1" style="stroke:#181818;stroke-width:1.0;"/><polygon fill="#181818" points="540.66,110.87,550.3801,109.2826,544.842,108.1294,545.9952,102.5913,540.66,110.87" style="stroke:#181818;stroke-width:1.0;"/><text fill="#000000" font-family="Courier" font-size="8" lengthAdjust="spacing" textLength="25" x="600.68" y="78.8019">inc&#160;1</text></g><!--link r to n0--><g id="link_r_n0"><path codeLine="56" d="M697.64,39.21 C729.22,58.55 778.5125,88.7377 810.1425,108.0977 " fill="none" id="r-to-n0" style="stroke:#181818;stroke-width:1.0;"/><polygon fill="#181818" points="815.26,111.23,809.672,103.1199,810.9954,108.6198,805.4956,109.9432,815.26,111.23" style="stroke:#181818;stroke-width:1.0;"/><text fill="#000000" font-family="Courier" font-size="8" lengthAdjust="spacing" textLength="25" x="762.51" y="78.8019">exc&#160;1</text></g><!--link n1 to n12--><g id="link_n1_n12"><path codeLine="59" d="M489.81,140.11 C445.8,159.1 364.649,194.1129 317.649,214.3929 " fill="none" id="n1-to-n12" style="stroke:#181818;stroke-width:1.0;"/><polygon fill="#181818" points="312.14,216.77,321.9883,216.8771,316.7309,214.7891,318.8188,209.5317,312.14,216.77" style="stroke:#181818;stroke-width:1.0;"/><text fill="#000000" font-family="Courier" font-size="8" lengthAdjust="spacing" textLength="25" x="406.61" y="183.0619">inc&#160;2</text></g><!--link n1 to n1x--><g id="link_n1_n1x"><path codeLine="60" d="M517,143.91 C517,163.24 517,190.06 517,209.3 " fill="none" id="n1-to-n1x" style="stroke:#181818;stroke-width:1.0;"/><polygon fill="#181818" points="517,215.3,521,206.3,517,210.3,513,206.3,517,215.3" style="stroke:#181818;stroke-width:1.0;"/><text fill="#000000" font-family="Courier" font-size="8" lengthAdjust="spacing" textLength="25" x="518" y="183.0619">exc&#160;2</text></g><!--link n0 to n02--><g id="link_n0_n02"><path codeLine="61" d="M840,143.91 C840,163.24 840,190.06 840,209.3 " fill="none" id="n0-to-n02" style="stroke:#181818;stroke-width:1.0;"/><polygon fill="#181818" points="840,215.3,844,206.3,840,210.3,836,206.3,840,215.3" style="stroke:#181818;stroke-width:1.0;"/><text fill="#000000" font-family="Courier" font-size="8" lengthAdjust="spacing" textLength="25" x="841" y="183.0619">inc&#160;2</text></g><!--link n0 to n0x--><g id="link_n0_n0x"><path codeLine="62" d="M864.73,137.82 C915.79,157.3 1026.7141,199.6314 1077.7241,219.0914 " fill="none" id="n0-to-n0x" style="stroke:#181818;stroke-width:1.0;"/><polygon fill="#181818" points="1083.33,221.23,1076.3469,214.2848,1078.6584,219.4478,1073.4954,221.7593,1083.33,221.23" style="stroke:#181818;stroke-width:1.0;"/><text fill="#000000" font-family="Courier" font-size="8" lengthAdjust="spacing" textLength="25" x="983.04" y="183.0619">exc&#160;2</text></g><!--link n12 to n123--><g id="link_n12_n123"><path codeLine="65" d="M254.94,248.17 C223.84,267.45 176.2098,296.959 145.1198,316.229 " fill="none" id="n12-to-n123" style="stroke:#181818;stroke-width:1.0;"/><polygon fill="#181818" points="140.02,319.39,149.7771,318.0485,144.2699,316.7559,145.5625,311.2487,140.02,319.39" style="stroke:#181818;stroke-width:1.0;"/><text fill="#000000" font-family="Courier" font-size="8" lengthAdjust="spacing" textLength="25" x="203.45" y="287.3219">inc&#160;3</text></g><!--link n12 to n12x--><g id="link_n12_n12x"><path codeLine="66" d="M280,248.17 C280,267.5 280,294.31 280,313.56 " fill="none" id="n12-to-n12x" style="stroke:#181818;stroke-width:1.0;"/><polygon fill="#181818" points="280,319.56,284,310.56,280,314.56,276,310.56,280,319.56" style="stroke:#181818;stroke-width:1.0;"/><text fill="#000000" font-family="Courier" font-size="8" lengthAdjust="spacing" textLength="25" x="281" y="287.3219">exc&#160;3</text></g><!--link n1x to n1x3--><g id="link_n1x_n1x3"><path codeLine="67" d="M505.82,248.24 C500.29,256.63 493.97,267.36 490,277.77 C484.81,291.36 482.7317,301.7873 481.2517,313.5073 " fill="none" id="n1x-to-n1x3" style="stroke:#181818;stroke-width:1.0;"/><polygon fill="#181818" points="480.5,319.46,485.596,311.0321,481.1264,314.4994,477.6591,310.0298,480.5,319.46" style="stroke:#181818;stroke-width:1.0;"/><text fill="#000000" font-family="Courier" font-size="8" lengthAdjust="spacing" textLength="25" x="491" y="287.3219">inc&#160;3</text></g><!--link n1x to n1xx--><g id="link_n1x_n1xx"><path codeLine="68" d="M525.51,248.17 C536.09,267.5 551.1785,295.0472 561.7185,314.2972 " fill="none" id="n1x-to-n1xx" style="stroke:#181818;stroke-width:1.0;"/><polygon fill="#181818" points="564.6,319.56,563.7862,309.7448,562.1987,315.1744,556.7692,313.5869,564.6,319.56" style="stroke:#181818;stroke-width:1.0;"/><text fill="#000000" font-family="Courier" font-size="8" lengthAdjust="spacing" textLength="25" x="547.68" y="287.3219">exc&#160;3</text></g><!--link n02 to n023--><g id="link_n02_n023"><path codeLine="69" d="M824.96,248.25 C817.73,256.48 809.48,267.06 804,277.77 C797.15,291.15 794.0886,301.9669 791.7086,313.8469 " fill="none" id="n02-to-n023" style="stroke:#181818;stroke-width:1.0;"/><polygon fill="#181818" points="790.53,319.73,796.22,311.6911,791.5122,314.8274,788.3758,310.1196,790.53,319.73" style="stroke:#181818;stroke-width:1.0;"/><text fill="#000000" font-family="Courier" font-size="8" lengthAdjust="spacing" textLength="25" x="805" y="287.3219">inc&#160;3</text></g><!--link n02 to n02x--><g id="link_n02_n02x"><path codeLine="70" d="M847.9,248.17 C857.73,267.5 871.6901,294.9619 881.4801,314.2119 " fill="none" id="n02-to-n02x" style="stroke:#181818;stroke-width:1.0;"/><polygon fill="#181818" points="884.2,319.56,883.6856,309.7246,881.9334,315.1032,876.5548,313.3511,884.2,319.56" style="stroke:#181818;stroke-width:1.0;"/><text fill="#000000" font-family="Courier" font-size="8" lengthAdjust="spacing" textLength="25" x="868.56" y="287.3219">exc&#160;3</text></g><!--link n0x to n0x3--><g id="link_n0x_n0x3"><path codeLine="71" d="M1108,248.17 C1108,267.5 1108,294.31 1108,313.56 " fill="none" id="n0x-to-n0x3" style="stroke:#181818;stroke-width:1.0;"/><polygon fill="#181818" points="1108,319.56,1112,310.56,1108,314.56,1104,310.56,1108,319.56" style="stroke:#181818;stroke-width:1.0;"/><text fill="#000000" font-family="Courier" font-size="8" lengthAdjust="spacing" textLength="25" x="1109" y="287.3219">inc&#160;3</text></g><!--link n0x to n0xx--><g id="link_n0x_n0xx"><path codeLine="72" d="M1129.87,248.17 C1157.09,267.5 1198.4085,296.8354 1225.5085,316.0854 " fill="none" id="n0x-to-n0xx" style="stroke:#181818;stroke-width:1.0;"/><polygon fill="#181818" points="1230.4,319.56,1225.3791,311.0871,1226.3237,316.6645,1220.7463,317.6091,1230.4,319.56" style="stroke:#181818;stroke-width:1.0;"/><text fill="#000000" font-family="Courier" font-size="8" lengthAdjust="spacing" textLength="25" x="1185.32" y="287.3219">exc&#160;3</text></g><!--link n123 to poda1--><g id="link_n123_poda1"><path codeLine="75" d="M102.96,352.31 C96.19,361.02 87.59,372.1 80,382.03 C66.46,399.73 54.851,415.1208 43.701,429.9808 " fill="none" id="n123-to-poda1" style="stroke:#181818;stroke-width:1.0;"/><polygon fill="#181818" points="40.1,434.78,48.701,429.9819,43.1009,430.7806,42.3021,425.1805,40.1,434.78" style="stroke:#181818;stroke-width:1.0;"/><text fill="#000000" font-family="Courier" font-size="8" lengthAdjust="spacing" textLength="25" x="81" y="397.0819">inc&#160;4</text></g><!--link n123 to n123x--><g id="link_n123_n123x"><path codeLine="76" d="M115,352.51 C115,375.39 115,411.79 115,434.67 " fill="none" id="n123-to-n123x" style="stroke:#181818;stroke-width:1.0;"/><polygon fill="#181818" points="115,440.67,119,431.67,115,435.67,111,431.67,115,440.67" style="stroke:#181818;stroke-width:1.0;"/><text fill="#000000" font-family="Courier" font-size="8" lengthAdjust="spacing" textLength="25" x="116" y="397.0819">exc&#160;4</text></g><!--link n12x to sol1--><g id="link_n12x_sol1"><path codeLine="77" d="M267.44,352.16 C260.84,360.63 252.91,371.54 247,382.03 C237.46,398.94 231.2235,413.7534 225.6135,428.9034 " fill="none" id="n12x-to-sol1" style="stroke:#181818;stroke-width:1.0;"/><polygon fill="#181818" points="223.53,434.53,230.4064,427.4791,225.2663,429.8411,222.9042,424.701,223.53,434.53" style="stroke:#181818;stroke-width:1.0;"/><text fill="#000000" font-family="Courier" font-size="8" lengthAdjust="spacing" textLength="25" x="253" y="391.5819">inc&#160;4</text><text fill="#000000" font-family="Courier" font-size="8" lengthAdjust="spacing" textLength="35" x="248" y="402.4777">r=4-4=0</text></g><!--link n12x to n12xx--><g id="link_n12x_n12xx"><path codeLine="78" d="M284.18,352.51 C290.32,375.39 300.1249,411.995 306.2649,434.875 " fill="none" id="n12x-to-n12xx" style="stroke:#181818;stroke-width:1.0;"/><polygon fill="#181818" points="307.82,440.67,309.3506,430.9408,306.5241,435.8409,301.624,433.0143,307.82,440.67" style="stroke:#181818;stroke-width:1.0;"/><text fill="#000000" font-family="Courier" font-size="8" lengthAdjust="spacing" textLength="25" x="298.92" y="397.0819">exc&#160;4</text></g><!--link n1x3 to poda2--><g id="link_n1x3_poda2"><path codeLine="79" d="M467.48,352.2 C461.03,360.86 452.93,371.95 446,382.03 C433.99,399.48 424.188,414.6297 414.748,429.5497 " fill="none" id="n1x3-to-poda2" style="stroke:#181818;stroke-width:1.0;"/><polygon fill="#181818" points="411.54,434.62,419.7323,429.1532,414.2134,430.3947,412.9718,424.8758,411.54,434.62" style="stroke:#181818;stroke-width:1.0;"/><text fill="#000000" font-family="Courier" font-size="8" lengthAdjust="spacing" textLength="25" x="447" y="397.0819">inc&#160;4</text></g><!--link n1x3 to n1x3x--><g id="link_n1x3_n1x3x"><path codeLine="80" d="M479.65,352.51 C480.61,375.39 482.1385,411.7953 483.0985,434.6753 " fill="none" id="n1x3-to-n1x3x" style="stroke:#181818;stroke-width:1.0;"/><polygon fill="#181818" points="483.35,440.67,486.9692,431.5102,483.1404,435.6744,478.9762,431.8456,483.35,440.67" style="stroke:#181818;stroke-width:1.0;"/><text fill="#000000" font-family="Courier" font-size="8" lengthAdjust="spacing" textLength="25" x="482.8" y="397.0819">exc&#160;4</text></g><!--link n1xx to n1xxx--><g id="link_n1xx_n1xxx"><path codeLine="81" d="M569.59,352.27 C567.83,360.95 565.88,372.04 565,382.03 C563.21,402.34 564.2042,419.8877 565.6542,434.9277 " fill="none" id="n1xx-to-n1xxx" style="stroke:#181818;stroke-width:1.0;"/><polygon fill="#181818" points="566.23,440.9,569.3479,431.5577,565.7502,435.9231,561.3848,432.3254,566.23,440.9" style="stroke:#181818;stroke-width:1.0;"/><text fill="#000000" font-family="Courier" font-size="8" lengthAdjust="spacing" textLength="25" x="566" y="397.0819">inc&#160;4</text></g><!--link n1xx to n1x4--><g id="link_n1xx_n1x4"><path codeLine="82" d="M581.11,352.51 C592.99,375.39 612.2451,412.465 624.1251,435.345 " fill="none" id="n1xx-to-n1x4" style="stroke:#181818;stroke-width:1.0;"/><polygon fill="#181818" points="626.89,440.67,626.2926,430.8393,624.5859,436.2325,619.1927,434.5258,626.89,440.67" style="stroke:#181818;stroke-width:1.0;"/><text fill="#000000" font-family="Courier" font-size="8" lengthAdjust="spacing" textLength="25" x="608.71" y="397.0819">exc&#160;4</text></g><!--link n023 to poda3--><g id="link_n023_poda3"><path codeLine="83" d="M775.79,352.19 C768.96,360.85 760.37,371.94 753,382.03 C740.27,399.46 729.7989,414.6916 719.7489,429.6316 " fill="none" id="n023-to-poda3" style="stroke:#181818;stroke-width:1.0;"/><polygon fill="#181818" points="716.4,434.61,724.7423,429.375,719.1908,430.4613,718.1045,424.9098,716.4,434.61" style="stroke:#181818;stroke-width:1.0;"/><text fill="#000000" font-family="Courier" font-size="8" lengthAdjust="spacing" textLength="25" x="754" y="397.0819">inc&#160;4</text></g><!--link n023 to n023x--><g id="link_n023_n023x"><path codeLine="84" d="M788,352.51 C788,375.39 788,411.79 788,434.67 " fill="none" id="n023-to-n023x" style="stroke:#181818;stroke-width:1.0;"/><polygon fill="#181818" points="788,440.67,792,431.67,788,435.67,784,431.67,788,440.67" style="stroke:#181818;stroke-width:1.0;"/><text fill="#000000" font-family="Courier" font-size="8" lengthAdjust="spacing" textLength="25" x="789" y="397.0819">exc&#160;4</text></g><!--link n02x to n02x4--><g id="link_n02x_n02x4"><path codeLine="85" d="M892,352.51 C892,375.39 892,411.79 892,434.67 " fill="none" id="n02x-to-n02x4" style="stroke:#181818;stroke-width:1.0;"/><polygon fill="#181818" points="892,440.67,896,431.67,892,435.67,888,431.67,892,440.67" style="stroke:#181818;stroke-width:1.0;"/><text fill="#000000" font-family="Courier" font-size="8" lengthAdjust="spacing" textLength="25" x="893" y="397.0819">inc&#160;4</text></g><!--link n02x to n02xx--><g id="link_n02x_n02xx"><path codeLine="86" d="M904.94,352.51 C923.92,375.39 955.2504,413.1711 974.2204,436.0511 " fill="none" id="n02x-to-n02xx" style="stroke:#181818;stroke-width:1.0;"/><polygon fill="#181818" points="978.05,440.67,975.3849,431.1886,974.8587,436.8209,969.2264,436.2947,978.05,440.67" style="stroke:#181818;stroke-width:1.0;"/><text fill="#000000" font-family="Courier" font-size="8" lengthAdjust="spacing" textLength="25" x="948.43" y="397.0819">exc&#160;4</text></g><!--link n0x3 to sol3--><g id="link_n0x3_sol3"><path codeLine="87" d="M1102.19,352.16 C1099.08,360.82 1095.41,371.91 1093,382.03 C1088.83,399.52 1086.6629,413.7713 1084.9029,428.6913 " fill="none" id="n0x3-to-sol3" style="stroke:#181818;stroke-width:1.0;"/><polygon fill="#181818" points="1084.2,434.65,1089.2268,426.1806,1084.7858,429.6844,1081.2819,425.2434,1084.2,434.65" style="stroke:#181818;stroke-width:1.0;"/><text fill="#000000" font-family="Courier" font-size="8" lengthAdjust="spacing" textLength="25" x="1099" y="391.5819">inc&#160;4</text><text fill="#000000" font-family="Courier" font-size="8" lengthAdjust="spacing" textLength="35" x="1094" y="402.4777">r=4-4=0</text></g><!--link n0x3 to n0x3x--><g id="link_n0x3_n0x3x"><path codeLine="88" d="M1117.05,352.27 C1122.12,360.96 1128.51,372.05 1134,382.03 C1145.09,402.18 1154.6046,420.4149 1162.3646,435.4949 " fill="none" id="n0x3-to-n0x3x" style="stroke:#181818;stroke-width:1.0;"/><polygon fill="#181818" points="1165.11,440.83,1164.5487,430.9972,1162.8222,436.3841,1157.4352,434.6576,1165.11,440.83" style="stroke:#181818;stroke-width:1.0;"/><text fill="#000000" font-family="Courier" font-size="8" lengthAdjust="spacing" textLength="25" x="1147.05" y="397.0819">exc&#160;4</text></g><!--link n0xx to n0xx4--><g id="link_n0xx_n0xx4"><path codeLine="89" d="M1250.72,352.34 C1250.06,361.05 1249.33,372.14 1249,382.03 C1248.32,402.4 1249.1818,419.926 1250.2818,434.946 " fill="none" id="n0xx-to-n0xx4" style="stroke:#181818;stroke-width:1.0;"/><polygon fill="#181818" points="1250.72,440.93,1254.052,431.6619,1250.3548,435.9434,1246.0733,432.2462,1250.72,440.93" style="stroke:#181818;stroke-width:1.0;"/><text fill="#000000" font-family="Courier" font-size="8" lengthAdjust="spacing" textLength="25" x="1250" y="397.0819">inc&#160;4</text></g><!--link n0xx to n0xxx--><g id="link_n0xx_n0xxx"><path codeLine="90" d="M1261.87,352.19 C1267.36,360.85 1274.23,371.94 1280,382.03 C1291.42,402 1300.8941,420.2548 1308.5441,435.3948 " fill="none" id="n0xx-to-n0xxx" style="stroke:#181818;stroke-width:1.0;"/><polygon fill="#181818" points="1311.25,440.75,1310.7613,430.9133,1308.9951,436.2873,1303.621,434.5211,1311.25,440.75" style="stroke:#181818;stroke-width:1.0;"/><text fill="#000000" font-family="Courier" font-size="8" lengthAdjust="spacing" textLength="25" x="1293.26" y="397.0819">exc&#160;4</text></g><!--link n02xx to sol2--><g id="link_n02xx_sol2"><path codeLine="93" d="M975.07,473.79 C966.51,483.23 956.76,496.04 952,509.54 C946,526.57 945.5011,541.2084 946.6911,556.3884 " fill="none" id="n02xx-to-sol2" style="stroke:#181818;stroke-width:1.0;"/><polygon fill="#181818" points="947.16,562.37,950.4444,553.0849,946.7692,557.3853,942.4689,553.7101,947.16,562.37" style="stroke:#181818;stroke-width:1.0;"/><text fill="#000000" font-family="Courier" font-size="8" lengthAdjust="spacing" textLength="25" x="958" y="519.0919">inc&#160;5</text><text fill="#000000" font-family="Courier" font-size="8" lengthAdjust="spacing" textLength="35" x="953" y="529.9877">r=5-5=0</text></g><!--link n02xx to f2x--><g id="link_n02xx_f2x"><path codeLine="94" d="M996.03,473.68 C1003.9,497.77 1017.1781,538.4162 1025.0681,562.5862 " fill="none" id="n02xx-to-f2x" style="stroke:#181818;stroke-width:1.0;"/><polygon fill="#181818" points="1026.93,568.29,1027.9396,558.493,1025.3784,563.5368,1020.3346,560.9756,1026.93,568.29" style="stroke:#181818;stroke-width:1.0;"/><text fill="#000000" font-family="Courier" font-size="8" lengthAdjust="spacing" textLength="25" x="1016.17" y="524.5919">exc&#160;5</text></g><!--SRC=[VPJDRjGm4CVlUOhHSg18kwl4TlWIYrGM8I6XNQIA4-t1JHm8pSQLiwM64m_14_8a-2En9qssFQogcTz_vkznnjrDtTvonG-ml_uXYkC7sHvt_21WiPLtgXPgaNGpo4NzMy0hb3fNIju_AWw4qxwSb7qdLIdKLZPImNN3YvifOOBVbBnhIq_TVw-F8acUmgx-AHf84-amMAZDYoLylLe0xq1584F0SmDadcYpMM6RHYL11BFA9Hcqv5HHZHAvIGoAb9nefsC_Yf3CzrlIq94-uWPtfIuNT9gUj8fLn7eDgdJKRNmE_S17q8mwZOw8piZWtv-_S2jB3eLKHmwDlIr-iBzlubr-thy_lspLPaLT3SjdyAIgE6TiFAN9cBJbXFaBtCN-qvVjn_tkidKiysmd6rEoAAggACP7UZ3RQS7WBWlko8mxwakXgvYMMg_NuJfCLeXJMJP91XSakA0pBeXrCRhQgOj-ac4szfhP39KxAZ9wRiOKJPYUcZ3wQXuPYlbqsEcXf7XauGlBtHTcUajxeFmApjpNzej3Aw4KNL6BjXJFvfnRV71E9iuhtdJ2fIkY_Q0vHmyHhDwQnqR1gZJ_j1cyXhejK2Gr4Q5j9BvDLaCI0_SYqgjmJFSw4qk7KeWBiSZ55ypMfucjEpIWlN8S7RGsgaDZpCOeObCI324MHJ6hWr7CncXauuje_RF4sNQOVmYy6iVzudkzY_TbtP8Fl5qMjcAR505-mQDGeqO4DT8qJcN4exbepCSuWyYd-20qyY7kznFnEiwIOHx5CJ_uTBitS_00-Cr3GdGHk16EHnwzvoQNmrdSjoNCxvjtEfWRPfjRR_agTzu2O1UixvKd_m40]--></g></svg>